<svg xmlns="http://www.w3.org/2000/svg" width="241.791" height="39.361" viewBox="0 0 241.791 39.361"><defs><style>.a{fill:#e12626;}</style></defs><g transform="translate(-3896.484 -4110.769)"><path class="a" d="M1047.687,1870a9.9,9.9,0,0,0-4.486.957,16.8,16.8,0,0,0-4.264,3.419v-3.228h-8.89v37.261h9.313l-.005-19.38c0-7.1,1.962-10.663,6.712-10.663a7.137,7.137,0,0,1,2.509.5,46.953,46.953,0,0,1,5.27-7.183,13.571,13.571,0,0,0-6.16-1.681m166.893,18.692,12.591-17.551h-10.622l-7.289,10.159-7.313-10.159h-10.786l12.718,17.655-14.062,19.613h10.621l8.755-12.216,8.8,12.216h10.793Zm-48.139-8.392a11.14,11.14,0,0,1,6.822-2.154,10.559,10.559,0,0,1,6.3,1.92,9.246,9.246,0,0,1,3.638,5l-20.167-.011a12,12,0,0,1,3.412-4.758m15.707,17.128a12.228,12.228,0,0,1-8.939,3.719,10.72,10.72,0,0,1-7.161-2.388,10.206,10.206,0,0,1-3.454-6.409l29.881.018.037-1.774q0-9.206-5.48-14.824t-14.24-5.617a18.278,18.278,0,0,0-13.713,5.636,19.473,19.473,0,0,0-5.473,14.156,18.875,18.875,0,0,0,5.467,13.854q5.465,5.544,14.185,5.537a21.761,21.761,0,0,0,9.7-2,18.506,18.506,0,0,0,7.008-6.188Zm-38.133-25.371a12.952,12.952,0,0,0-6.951-1.849,14.61,14.61,0,0,0-7.043,1.725,15.084,15.084,0,0,0-5.443,5.041,12.327,12.327,0,0,0-4.484-5.047,11.768,11.768,0,0,0-6.277-1.738,15.253,15.253,0,0,0-6.357,1.314,15.764,15.764,0,0,0-5.3,3.966v-4.323h-9.32l-.013,37.263h9.314l.006-16.532a24.178,24.178,0,0,1,.945-7.857,8.322,8.322,0,0,1,2.841-3.88,7.063,7.063,0,0,1,4.227-1.382,5.829,5.829,0,0,1,3.559,1.1,6.557,6.557,0,0,1,2.2,3.333,25.369,25.369,0,0,1,.735,7.231l-.018,17.987h9.327v-16.758a23.743,23.743,0,0,1,.932-7.736,8.137,8.137,0,0,1,2.828-3.774,7.18,7.18,0,0,1,4.3-1.364,5.4,5.4,0,0,1,4.718,2.235q1.584,2.245,1.577,8.557l-.013,18.84h9.313l.013-21.823q0-6.712-1.307-9.693a10.618,10.618,0,0,0-4.313-4.837m-67.8,25.665a9.5,9.5,0,0,1-7.227,3.07,9.328,9.328,0,0,1-7.124-3.131,12.4,12.4,0,0,1-.042-15.844,9.294,9.294,0,0,1,7.135-3.063,9.637,9.637,0,0,1,7.271,3.014c1.915,2.02,2.527,4.316,2.522,7.563,0,3.32-.614,6.347-2.535,8.391m2.467-22.5a17.121,17.121,0,0,0-5.387-3.776,15.6,15.6,0,0,0-6.253-1.271,16.058,16.058,0,0,0-12.271,5.513q-5.052,5.514-5.057,14.144a19.578,19.578,0,0,0,5.215,13.923,16.359,16.359,0,0,0,12.376,5.61,15.071,15.071,0,0,0,5.908-1.142,18.117,18.117,0,0,0,5.449-3.757v3.948h9.313v-37.263h-9.3Zm-65.178,22.5a9.5,9.5,0,0,1-7.234,3.07,9.3,9.3,0,0,1-7.112-3.131,12.384,12.384,0,0,1-.049-15.844,9.3,9.3,0,0,1,7.136-3.063,9.62,9.62,0,0,1,7.271,3.014c1.915,2.02,2.535,4.316,2.528,7.563,0,3.32-.619,6.347-2.539,8.391m2.466-22.5a17,17,0,0,0-5.393-3.776,15.547,15.547,0,0,0-6.24-1.271,16.064,16.064,0,0,0-12.278,5.513Q987,1881.2,987,1889.828a19.626,19.626,0,0,0,5.215,13.923,16.351,16.351,0,0,0,12.369,5.61,15.133,15.133,0,0,0,5.921-1.142,18.094,18.094,0,0,0,5.447-3.757v3.948h9.315v-37.263h-9.3Z" transform="translate(2909.484 2240.769)"/></g></svg>