<svg xmlns="http://www.w3.org/2000/svg" width="78.712" height="44.978" viewBox="0 0 78.712 44.978"><defs><style>.a{fill:#2d783f;}.b{fill:#ee7325;}</style></defs><g transform="translate(-1603.375 -92)"><path class="a" d="M1261.035,3557.847h-12.051a.5.5,0,0,1-.5-.506v-9.482a.5.5,0,0,1,.5-.505h2.292a.521.521,0,0,1,.347.14l9.749,9.482A.506.506,0,0,1,1261.035,3557.847Zm5.428-.42-12.452-12.549a4.193,4.193,0,0,0-2.969-1.248h-6.284v-2.4a3.2,3.2,0,0,0-3.168-3.229h-36.269a3.2,3.2,0,0,0-3.168,3.229v.506l-12.858,1.509,22.784,3.023L1189,3548.6l23,3.333-23,2.032,13.155,2.527v6.345h65.556v-2.357A4.376,4.376,0,0,0,1266.464,3557.426Zm-13.91,22.2a3.348,3.348,0,1,1,3.283-3.346A3.319,3.319,0,0,1,1252.554,3579.63Zm0-10.051a6.7,6.7,0,1,0,6.568,6.7A6.644,6.644,0,0,0,1252.554,3569.579Zm15.158-4.953v7.148a3.2,3.2,0,0,1-3.168,3.229h-3.39a8.672,8.672,0,0,0-17.205,0h-17.183a8.666,8.666,0,0,0-17.194,0h-4.246a3.2,3.2,0,0,1-3.168-3.229v-7.148Zm-49.546,15a3.348,3.348,0,1,1,3.285-3.346A3.319,3.319,0,0,1,1218.166,3579.63Zm0-10.051a6.7,6.7,0,1,0,6.568,6.7A6.635,6.635,0,0,0,1218.166,3569.579Z" transform="translate(414.375 -3446)"/><path class="b" d="M1267.712,3564.626v7.148a3.2,3.2,0,0,1-3.168,3.229h-3.39a8.672,8.672,0,0,0-17.205,0h-17.183a8.666,8.666,0,0,0-17.194,0h-4.246a3.2,3.2,0,0,1-3.168-3.229v-7.148Z" transform="translate(414.375 -3446)"/></g></svg>