<svg xmlns="http://www.w3.org/2000/svg" width="263.216" height="57.524" viewBox="0 0 263.216 57.524"><defs><style>.a{fill:#fecc00;}.b{fill:#d50029;}</style></defs><g transform="translate(-3896.484 -3989)"><rect class="a" width="262.656" height="57.524" transform="translate(3897.044 3989)"/><path class="b" d="M1160.492,1814.4s-1.761,2.381-2.615,3.526c-3.024,4.044-.349,8.76,9.519,8.76h38.676l9.138-12.283h-54.718Zm27.582-2.781,16.11-21.655h-25.506c-.008,0-16.121,21.655-16.121,21.655Zm31.544,2.781-1.938,2.609h31.749V1814.4Zm-9.133,12.285h38.945v-2.594h-37.016Zm3.592-4.832h35.353v-2.609h-33.412ZM987,1826.687h29.955l1.93-2.594H987Zm39.094-12.285H987v2.606h37.15ZM987,1819.247v2.609h33.55l1.938-2.609Zm132.438,7.44h24.083l9.136-12.283h-24.081C1128.567,1814.4,1119.438,1826.687,1119.438,1826.687Zm27.314-36.721-9.24,12.418h-10.75l9.235-12.418h-24.082L1095.8,1811.62h58.921l16.107-21.655Zm-62.155,36.721h24.09l9.133-12.287-24.087,0C1093.726,1814.4,1084.6,1826.687,1084.6,1826.687Zm-26.713-12.285c-3.55,0-2.479-1.443-1.886-2.236,1.167-1.561,3.117-4.2,4.264-5.74,1.127-1.514,1.158-2.382-1.152-2.382h-20.9l-16.84,22.643h41.064c13.564,0,21.115-9.128,23.443-12.283C1085.881,1814.4,1061.638,1814.4,1057.885,1814.4Zm13.729-10.782c-1.147,1.536-3.067,4.208-4.234,5.767-.593.793-1.663,2.234,1.886,2.234h18.687s3.012-4.054,5.537-7.444c3.435-4.614.3-14.211-11.982-14.211h-48.356l-8.384,11.272h45.7C1072.772,1801.238,1072.74,1802.106,1071.614,1803.619Z" transform="translate(2909.484 2209.084)"/></g></svg>