<svg xmlns="http://www.w3.org/2000/svg" width="74.087" height="28.538" viewBox="0 0 74.087 28.538"><defs><style>.a{fill:#0072ce;fill-rule:evenodd;}</style></defs><g transform="translate(-9.258 -13.076)"><path class="a" d="M647.994,2183.292c0,2.544-1.8,3.07-3.623,3.07h-2.593v3.073h-4.042l-2.561-3.033-2.66,3.033h-8.238v-9.164h8.365l2.558,3,2.644-3h6.645C646.139,2180.272,647.994,2180.755,647.994,2183.292Zm-16.533,4.235h-5.112V2185.7h4.566v-1.868h-4.566v-1.667h5.214l2.273,2.67Zm8.245,1.074-3.193-3.732,3.193-3.614Zm4.76-4.1h-2.688v-2.334h2.711c.75,0,1.271.325,1.271,1.125A1.14,1.14,0,0,1,644.465,2184.5Zm14.028-4.229h6.941v1.9h-4.869v1.667h4.749v1.868h-4.749v1.825l4.869.007v1.9h-6.941Zm-2.625,4.906a2.273,2.273,0,0,1,1.019.771,2.784,2.784,0,0,1,.343,1.671v1.816h-2.086v-1.147a2.835,2.835,0,0,0-.336-1.791c-.306-.329-.769-.408-1.526-.408h-2.222v3.346h-2.091v-9.164h4.8a4.922,4.922,0,0,1,2.5.433,2.169,2.169,0,0,1,1.07,2.035A2.567,2.567,0,0,1,655.868,2185.177Zm-1.257-1.139a1.906,1.906,0,0,1-1.026.188h-2.526v-2.059h2.561a1.947,1.947,0,0,1,.991.167.876.876,0,0,1,.43.823A1,1,0,0,1,654.611,2184.038Zm18.765.565a2.649,2.649,0,0,1,.62,1.943c0,1.97-1.169,2.889-3.267,2.889H666.68v-1.964h4.033a1.177,1.177,0,0,0,.85-.227.831.831,0,0,0,.245-.6.81.81,0,0,0-.252-.6,1.051,1.051,0,0,0-.741-.2c-1.945-.069-4.38.063-4.38-2.836a2.646,2.646,0,0,1,2.973-2.727h4.17v1.95h-3.816a1.34,1.34,0,0,0-.834.166.715.715,0,0,0-.312.66.7.7,0,0,0,.456.681,2.276,2.276,0,0,0,.808.1l1.12.033A3.265,3.265,0,0,1,673.376,2184.6Zm8.293,3.661a3.165,3.165,0,0,1-2.822,1.172h-4.015v-1.964h4a1.141,1.141,0,0,0,.843-.227.831.831,0,0,0,.245-.6.772.772,0,0,0-.255-.6,1.01,1.01,0,0,0-.732-.2c-1.952-.069-4.389.063-4.389-2.836a2.656,2.656,0,0,1,2.984-2.727h4.142v-1.825h-3.848a4.157,4.157,0,0,0-2.6.75v-.75h-5.693a3.8,3.8,0,0,0-2.484.75v-.75H656.877v.75a5.187,5.187,0,0,0-2.8-.75h-6.7v.75a4.546,4.546,0,0,0-2.931-.75h-7.5l-1.718,1.958-1.607-1.958H622.4v12.787h11l1.769-1.986,1.667,1.986,6.779.005v-3.005h.667a6.766,6.766,0,0,0,2.9-.452v3.452h5.591V2187.9h.269c.345,0,.38.017.38.378v2.956H670.4a4.667,4.667,0,0,0,2.829-.819v.819h5.388a6.9,6.9,0,0,0,3.049-.59Zm0-6.04h-3.79a1.38,1.38,0,0,0-.84.164.729.729,0,0,0-.3.66.69.69,0,0,0,.454.683,2.309,2.309,0,0,0,.8.1l1.128.033a3.191,3.191,0,0,1,2.359.736,1.156,1.156,0,0,1,.192.227Z" transform="translate(-598.323 -2149.627)"/><path class="a" d="M616,2184.435h3.547l.8-2.035h1.79l.8,2.035h6.976v-1.556l.623,1.563h3.621l.623-1.588v1.581h17.334l-.009-3.341h.336c.236.009.3.03.3.44v2.9H661.7v-.778a6.787,6.787,0,0,0,3.327.778H668.8l.808-2.035h1.79l.789,2.035h7.268V2182.5l1.1,1.936h5.823v-12.787h-5.763v1.512l-.808-1.512H673.9v1.512l-.741-1.512h-7.99a6.859,6.859,0,0,0-3.461.748v-.748h-5.515v.748a3.3,3.3,0,0,0-2.343-.748H633.7l-1.352,3.3-1.387-3.3h-6.344v1.512l-.7-1.512h-5.411l-2.514,6.08Zm68.533-1.8h-2.94l-3.931-6.881v6.881h-4.225l-.808-2.044h-4.311l-.783,2.044H665.1a4.21,4.21,0,0,1-3.007-1.014,4.778,4.778,0,0,1-1.109-3.5,5.053,5.053,0,0,1,1.118-3.584,4.068,4.068,0,0,1,3.151-1.072h2.01v1.965H665.3a1.926,1.926,0,0,0-1.6.544,3.137,3.137,0,0,0-.6,2.077,3.3,3.3,0,0,0,.572,2.153,1.93,1.93,0,0,0,1.445.473h.933l2.924-7.212h3.107l3.514,8.673v-8.673h3.158l3.646,6.387v-6.387h2.125Zm-24.56,0h-2.116v-9.17h2.116Zm-3.32-6.7a2.577,2.577,0,0,1-1.463,2.442,2.423,2.423,0,0,1,1.028.773,2.769,2.769,0,0,1,.343,1.683v1.8h-2.093l-.007-1.158a2.879,2.879,0,0,0-.329-1.785c-.3-.322-.764-.394-1.512-.394h-2.227v3.336h-2.074v-9.17h4.771a4.63,4.63,0,0,1,2.512.442A2.158,2.158,0,0,1,656.652,2175.936Zm-9.772,6.7h-6.932v-9.17h6.932v1.91h-4.857v1.653h4.742v1.88h-4.742v1.829h4.857Zm-8.478,0h-2.125l-.009-7.182-3.007,7.182h-1.822l-3.017-7.187v7.187H624.2l-.8-2.044h-4.32l-.806,2.044h-2.253l3.716-9.17h3.081l3.528,8.679v-8.679h3.387l2.716,6.221,2.493-6.221H638.4Zm33.517-3.957-1.436-3.656-1.426,3.656Zm-17.98-1.457a1.814,1.814,0,0,1-1.026.19h-2.521v-2.038h2.553a1.989,1.989,0,0,1,.984.167.844.844,0,0,1,.438.81A.95.95,0,0,1,653.938,2177.223Zm-31.286,1.457-1.419-3.656-1.412,3.656Z" transform="translate(-606.741 -2158.572)"/></g></svg>