<svg xmlns="http://www.w3.org/2000/svg" width="153.418" height="46.584" viewBox="0 0 153.418 46.584"><defs><style>.a{fill:#ff5900;}.b{fill:#2a007c;}</style></defs><g transform="translate(-4020.191 -4216.201)"><path class="a" d="M1149.093,1953.706l6.345,6.932,6.108-6.932h13.044l-12.747,14.209,12.922,14.325h-13.57l-6.285-6.986-6.228,6.986h-13.1l12.809-14.266-12.809-14.268Z" transform="translate(2998.844 2278.912)"/><path class="a" d="M1147.4,1961.414v9.641H1132.89v8.847H1147.4v10.047h-25.169V1945H1147.4v10.019H1132.89v6.4Z" transform="translate(2987.021 2271.201)"/><path class="b" d="M1146.984,1983.106c-3.913,0-6.345-3.615-6.345-7.39,0-4.033,2.116-7.912,6.345-7.912,4.388,0,6.135,3.879,6.135,7.912C1153.118,1979.542,1151.268,1983.106,1146.984,1983.106Zm-37.727-11.917a5.8,5.8,0,0,1,5.695-4.72,5.517,5.517,0,0,1,5.748,4.72ZM1153.429,1945v18.4h-.117a10.805,10.805,0,0,0-8.7-3.609c-6.979,0-12.238,4.7-14.082,10.924-2.108-6.853-7.537-11.052-15.587-11.052-6.536,0-11.7,2.907-14.392,7.646v-5.889h-13.513v-6.4h14.746V1945H1075v44.949h12.044v-18.893h12.006a17.736,17.736,0,0,0-.548,4.443c0,9.375,7.226,15.957,16.447,15.957,7.755,0,12.868-3.609,15.57-10.188h-10.324c-1.4,1.978-2.453,2.563-5.246,2.563a6.172,6.172,0,0,1-6.027-6.115h21.018c.912,7.446,6.766,13.869,14.8,13.869a10.314,10.314,0,0,0,8.576-4.54h.117v2.91h10.618V1945Z" transform="translate(2945.191 2271.201)"/></g></svg>