<svg xmlns="http://www.w3.org/2000/svg" width="259.327" height="146.348" viewBox="0 0 259.327 146.348"><defs><style>.a{fill:#fff;}.b{fill:#2d783f;}.c{fill:#9e2d1a;}.d{fill:#941b11;}.e{fill:#b30619;}.f{fill:#8f0a12;}.g{fill:#3f8e39;}.h{fill:#164838;}.i{fill:#205f2d;}.j{fill:#e13515;}.k{fill:#ce3f20;}.l{fill:#f18e28;}.m{fill:#ee7325;}.n{fill:none;stroke:#fff;stroke-miterlimit:10;stroke-width:0.28px;}</style></defs><g transform="translate(-1533.47 -5838.632)"><path class="a" d="M1297.659,3871.668v-3.189h1.85v3.189ZM1285.3,3865.6c0,2.716,1.082,4.647,3.172,4.647,2.159,0,3.088-1.886,3.088-4.676,0-2.559-1.044-4.336-3.15-4.336C1286.369,3861.234,1285.3,3863.032,1285.3,3865.6Zm8.208-.036c0,3.414-1.46,6.292-5.15,6.292-3.583,0-5-3-5-6.239,0-3.1,1.66-5.991,5.144-5.991C1291.771,3859.626,1293.511,3862.165,1293.511,3865.564Zm-14.378,1.415a5.5,5.5,0,0,1-5.792,4.907c-4.6,0-6.343-3.57-6.343-8.375,0-4.228,2-8.143,6.45-8.143a5.2,5.2,0,0,1,5.609,4.949H1277.1c-.4-1.876-1.382-3.261-3.722-3.261-3.1,0-4.36,3.071-4.36,6.461,0,3.373,1.008,6.688,4.377,6.688,2.332,0,3.3-1.413,3.788-3.228Zm-32.73,1.267h1.865a2.411,2.411,0,0,0,2.592,2.112c1.6,0,2.222-.866,2.222-1.872,0-1.067-.732-1.622-2.689-2.166-2.81-.779-3.553-1.829-3.553-3.408,0-1.556,1.043-3.285,3.868-3.285,2.78,0,3.865,1.577,4.016,3.391h-1.85a2.055,2.055,0,0,0-2.253-1.887c-1.3,0-1.9.648-1.9,1.621,0,.881.434,1.356,2.38,1.88,2.938.8,3.869,1.823,3.869,3.692,0,2.19-1.694,3.538-4.17,3.538C1248.413,3871.862,1246.626,3870.708,1246.4,3868.246Zm-9.4-8.386h1.85v-3.43h1.874v3.43h2.326v1.584h-2.326v7.38c0,.986.24,1.4,1.227,1.4a5.183,5.183,0,0,0,.893-.076v1.448a4.964,4.964,0,0,1-1.508.2c-1.676,0-2.485-.655-2.485-2.612v-7.743H1237Zm-9.034,4c0-1.881-.013-3.42-.045-4h1.85c.039.555.046,1.307.046,2.391a3.881,3.881,0,0,1,3.73-2.608v2.01c-2.593.094-3.7,1.654-3.7,4.2v5.8h-1.882Zm-7.4,2.071h-1.827c-2.793,0-3.319,1.161-3.319,2.236a1.969,1.969,0,0,0,2.135,2.1c2.264,0,3.011-1.562,3.011-4.094Zm1.8,3.1a20.365,20.365,0,0,0,.174,2.617h-1.715a11,11,0,0,1-.167-1.823,3.4,3.4,0,0,1-3.486,2.032,3.358,3.358,0,0,1-3.68-3.577c0-1.776,1.12-3.746,5.25-3.746h1.767v-1.146c0-1.119-.311-2.272-2.267-2.272a2.134,2.134,0,0,0-2.453,2.089h-1.841c.172-1.974,1.286-3.583,4.354-3.583,2.411,0,4.063.992,4.063,3.677Zm-20.711-5.947h2.974c2.04,0,3.416-.718,3.416-3.008,0-1.948-1.377-2.836-3.389-2.836h-3Zm-1.958-7.494h5.272c2.918,0,5.08,1.55,5.08,4.447,0,3.154-2.17,4.7-5.34,4.7h-3.054v6.909h-1.958Zm-22.516,7.958c0-2.46-.022-3.189-.046-3.692h1.851c.03.223.084,1.358.069,1.847a3.5,3.5,0,0,1,3.4-2.08c2.135,0,3.671,1.232,3.671,4.418v7.608h-1.9v-7.31c0-1.716-.567-3.03-2.284-3.03-2.059,0-2.88,1.561-2.88,4.036v6.3h-1.882Zm-7.4,2.382h-1.827c-2.793,0-3.318,1.161-3.318,2.236a1.967,1.967,0,0,0,2.134,2.1c2.266,0,3.012-1.562,3.012-4.094Zm1.8,3.1a20.389,20.389,0,0,0,.174,2.617h-1.715a10.714,10.714,0,0,1-.167-1.823,3.4,3.4,0,0,1-3.486,2.032,3.357,3.357,0,0,1-3.68-3.577c0-1.776,1.12-3.746,5.25-3.746h1.765v-1.146c0-1.119-.311-2.272-2.266-2.272a2.133,2.133,0,0,0-2.453,2.089h-1.841c.172-1.974,1.286-3.583,4.354-3.583,2.411,0,4.063.992,4.063,3.677Zm-14.705-4.322c-.06-2.007-.846-3.52-2.848-3.52-2.283,0-2.824,2.113-2.928,3.52Zm-5.822,1.413c-.014,2.361.97,4.142,3,4.142a2.634,2.634,0,0,0,2.644-1.948h1.858a4.436,4.436,0,0,1-4.592,3.558c-3.607,0-4.832-2.9-4.832-6.158,0-2.9,1.39-6.093,4.939-6.093,3.614,0,4.667,2.884,4.667,5.6,0,.068-.01.821-.017.9Zm-5.917,1.764c-.465,2.308-1.893,3.987-4.635,3.987-3.245,0-4.877-2.2-4.877-6.144,0-3.4,1.675-6.107,4.993-6.107a4.261,4.261,0,0,1,4.5,4.117h-1.9a2.62,2.62,0,0,0-2.638-2.534c-2.1,0-3.012,1.878-3.012,4.491,0,3.023,1.068,4.6,2.987,4.6,1.6,0,2.284-1.011,2.688-2.412Zm-25.044-4.388c0,3.767,1.491,6.7,4.6,6.7,3.224,0,4.6-2.9,4.6-6.668,0-3.669-1.407-6.491-4.591-6.491S1120.087,3859.944,1120.087,3863.5Zm4.5,8.384c-4.338,0-6.523-3.538-6.523-8.35,0-4.207,2.136-8.167,6.707-8.167,4.328,0,6.51,3.524,6.51,8.155C1131.278,3868.136,1129.182,3871.886,1124.583,3871.886Z" transform="translate(453.444 2113.094)"/><path class="a" d="M1289.4,3836.71a1.367,1.367,0,0,1,1.451,1.375,1.453,1.453,0,0,1-2.9,0A1.379,1.379,0,0,1,1289.4,3836.71Zm-3.222-1.484a1.231,1.231,0,0,1,1.3-1.222,1.235,1.235,0,1,1,0,2.466A1.245,1.245,0,0,1,1286.18,3835.226Zm-2.091,2.859a1.453,1.453,0,0,1,2.9,0,1.453,1.453,0,0,1-2.9,0Zm12.972,2.139v6.743c0,3.84-1.75,5.761-5.312,5.761a4.35,4.35,0,0,1-4.374-2.684,4.273,4.273,0,0,1-4.225,2.465h-7.04v-2.138h2.8v-8.511h2.09v8.511h2.134a3.1,3.1,0,0,0,3.349-3.294v-5.216h2.092v5.5a2.978,2.978,0,0,0,3.179,3.207c2.026,0,3.22-1.135,3.22-3.4v-6.938Zm-20.524,12.285h-2.517v.11c0,3.6-1.323,4.692-3.945,4.692a7.113,7.113,0,0,1-1.666-.218l-.17-1.855a11.362,11.362,0,0,0,1.643.132c1.258,0,2.048-.634,2.048-2.425v-12.568h2.09v9.995h2.517Zm-22.08-2.138h10.817v-3.688c0-2.116-1.13-3.1-3.008-3.1h-5.888a4.21,4.21,0,0,1-.7-2.139l3.328-6.634h2.561l-3.542,6.612h4.033c3.54,0,5.354,1.813,5.354,5.566v5.52h-12.951Zm-5.032-14.251a1.5,1.5,0,0,1,2.987,0,1.5,1.5,0,0,1-2.987,0Zm-3.947,0a1.5,1.5,0,0,1,2.987,0,1.5,1.5,0,0,1-2.987,0Zm4.716,6.373h-1.43c-2.6,0-4.418,1.527-4.418,3.972v.021c0,2.357,1.836,3.885,4.418,3.885h1.43Zm4.693,7.878v2.138h-5.974c-3.926,0-6.55-2.4-6.55-6.022v-.021c0-3.667,2.71-6.088,6.828-6.088h1v-1.091h2.091v11.085Zm-20.542-1.986c0-2.619-1.493-4.386-3.756-4.386h-.021c-2.283,0-3.8,1.767-3.8,4.386v.022c0,2.6,1.514,4.32,3.8,4.32h.021c2.263,0,3.756-1.746,3.756-4.32Zm2.091.043v.022c0,3.841-2.347,6.438-5.847,6.438h-.021a5.532,5.532,0,0,1-4.758-2.38h-2.945v-2.138h2.007a7.9,7.9,0,0,1-.215-1.92v-.022c0-3.95,2.37-6.568,5.911-6.568h.021C1234.088,3841.86,1236.436,3844.479,1236.436,3848.428Zm-13.141,1.942v2.138h-13.313v-2.138h8.684a18.375,18.375,0,0,0,.49-3.928c0-2.64-1.473-4.256-3.863-4.256a5.883,5.883,0,0,0-3.413,1.071l-.746-1.965a8.738,8.738,0,0,1,4.308-1.244c3.692,0,5.7,2.444,5.7,6.5a22.079,22.079,0,0,1-.4,3.819Zm-14.251,5.958a1.5,1.5,0,1,1-1.493-1.4A1.4,1.4,0,0,1,1209.044,3856.329Zm-3.947,0a1.5,1.5,0,1,1-1.493-1.4A1.4,1.4,0,0,1,1205.1,3856.329Zm5.312-3.82h-9.323v-2.138h3.414v-9.995h2.092v9.995h3.817Zm-17.575-9.995h-5.42v7.857h9.409v-4.233C1196.844,3843.605,1195.244,3842.514,1192.834,3842.514Zm8.682,7.857v2.138h-18.924l.427-2.138h2.3v-15.56h2.092v5.565h5.248c4.1,0,6.294,2.16,6.272,6.11l-.02,3.885Zm-27.307-15.56h2.092v17.7h-2.092Zm-3.709,0v17.7h-5.676v-2.138h3.584v-15.56Zm-10.134,1.747a1.5,1.5,0,0,1,2.988,0,1.5,1.5,0,0,1-2.988,0Zm-3.945,0a1.5,1.5,0,0,1,2.987,0,1.5,1.5,0,0,1-2.987,0Zm4.416,13.813v-7.878h-1.429c-2.6,0-4.418,1.527-4.418,3.972v.021c0,2.357,1.836,3.885,4.418,3.885Zm4.693,0v2.138h-14.358v-2.138h3.178a5.785,5.785,0,0,1-1.345-3.885v-.021c0-3.667,2.711-6.088,6.829-6.088h3.094v9.995Zm-22.613-7.857H1137.5v7.857h9.409v-4.233C1146.928,3843.605,1145.328,3842.514,1142.917,3842.514Zm8.684,7.857v2.138h-18.455v-2.138h2.262v-15.734h2.091v5.739h5.248c4.1,0,6.294,2.16,6.273,6.11l-.022,3.885Zm-21.651-6.568a6.435,6.435,0,0,0-4.033-1.617,6.587,6.587,0,0,0-4.033,1.594l2.5,6.591h2.987Zm3.626,8.706H1123.7c-1.345,0-2.027.524-2.6,1.965l-1.195,3.034-1.9-.742,1.324-3.338c.7-1.834,1.6-2.728,3.113-2.969l-2.88-7.747a8.9,8.9,0,0,1,12.716.022l-2.836,7.638h4.138Z" transform="translate(453.42 2104.429)"/><path class="b" d="M1198.458,3798.536c0-10.843-5.135-17.4-13.533-17.4-8.469,0-13.672,6.624-13.672,17.4,0,10.907,5.2,17.667,13.672,17.667C1193.324,3816.2,1198.458,3809.51,1198.458,3798.536Zm14.437-.135c0,17.668-11.174,29.381-28.04,29.381-17,0-27.969-11.446-27.969-29.18,0-17.668,10.966-28.979,28.04-28.979S1212.9,3780.866,1212.9,3798.4Z" transform="translate(469.191 2078.319)"/><path class="b" d="M1225.527,3796.507c4.775,0,7.57-2.714,7.57-7.521s-2.659-7.313-7.57-7.313h-10.162v14.834Zm-24.281,31.274a76.258,76.258,0,0,0,.545-10.307v-37.682a79.53,79.53,0,0,0-.545-10.169c3.2.139,5.662.208,10.026.208h14.938c13.5,0,20.94,6.617,20.94,18.736,0,12.4-7.777,19.782-21.009,19.782h-10.776v8.914a92.2,92.2,0,0,0,.547,10.518Z" transform="translate(487.182 2078.319)"/><path class="b" d="M1275.527,3790.236c-1.318-6.09-5-9.1-10.965-9.1-8.467,0-13.4,6.425-13.4,17.467,0,10.909,5.137,17.535,13.742,17.535a11.09,11.09,0,0,0,9.093-4.217c1.181-1.605,1.666-2.945,2.083-5.754l14.437,2.073c-1.318,5.69-2.846,8.969-5.761,12.25-4.3,4.749-11.035,7.293-19.433,7.293-8.467,0-15.616-2.544-20.544-7.363-5.136-5.019-8.051-12.849-8.051-21.817,0-9.1,2.915-16.8,8.4-22.018,4.79-4.484,11.8-6.96,19.921-6.96,8.952,0,15.961,2.945,20.473,8.767a20.345,20.345,0,0,1,4.3,9.17Z" transform="translate(501.573 2078.319)"/><path class="c" d="M1143.68,3793.023l-19.142,21.042,1.563-11.08a18.975,18.975,0,0,0,8.73-16.046,4.226,4.226,0,0,0-.048-.774h.048Z" transform="translate(456.072 2085.027)"/><path class="d" d="M1154.976,3786.767l-19.291,33.958-.1-.049-11.049-6.783,19.143-21.042,11.2-6.26Z" transform="translate(456.071 2085.2)"/><path class="e" d="M1132.573,3807.836l11.048,6.782.1.049-.1.175h-38.8l-.1-.175.1-.049.243-13.093Z" transform="translate(448.036 2091.256)"/><path class="f" d="M1132.475,3809.212l-27.507-6.312,10.05-4.27a18.382,18.382,0,0,0,19.021-.5Z" transform="translate(448.135 2089.88)"/><path class="g" d="M1110.633,3809.423l-.243,13.093-.1.05L1091,3788.609l.2-.323,11.077-6.238Z" transform="translate(442.47 2083.358)"/><path class="h" d="M1107.918,3789.314a18.979,18.979,0,0,0,9.511,16.025l-10.05,4.27-8.359-27.376,8.873,7.081Z" transform="translate(445.723 2083.432)"/><path class="i" d="M1107.895,3795.249a3.784,3.784,0,0,0,.024.521h-.024l-8.875-7.082,19.144-21.035-1.493,11.521a18.95,18.95,0,0,0-8.776,16.075" transform="translate(445.723 2077.519)"/><path class="b" d="M1102.216,3790.575l-11.077,6.237L1110.334,3763h.366l10.661,6.538Z" transform="translate(442.526 2075.632)"/><path class="j" d="M1121.456,3776.295a18.459,18.459,0,0,0-9.878,2.877l1.493-11.52,27.505,6.33-10.782,4.324a18.08,18.08,0,0,0-8.338-2.011" transform="translate(450.815 2077.519)"/><path class="k" d="M1135.319,3771.977l8.362,27.351-8.849-6.859h-.048a18.879,18.879,0,0,0-10.247-16.169Z" transform="translate(456.071 2079.273)"/><path class="l" d="M1132.475,3763l19.293,33.961-11.2,6.26-8.361-27.351Z" transform="translate(459.183 2075.632)"/><path class="m" d="M1105.056,3763h38.432l-.267,12.87-27.505-6.333Z" transform="translate(448.171 2075.632)"/><line class="n" x1="258.624" transform="translate(1534.173 5922.967)"/></g></svg>