<svg xmlns="http://www.w3.org/2000/svg" width="36" height="36" viewBox="0 0 36 36"><defs><style>.a{fill:#fbbb00;}.b{fill:#518ef8;}.c{fill:#28b446;}.d{fill:#f14336;}</style></defs><path class="a" d="M7.978,150.3l-1.253,4.678-4.58.1a18.031,18.031,0,0,1-.133-16.808h0l4.078.748,1.786,4.053a10.742,10.742,0,0,0,.1,7.233Z" transform="translate(0 -128.546)"/><path class="b" d="M278.918,208.176a17.993,17.993,0,0,1-6.417,17.4h0l-5.136-.262-.727-4.538a10.728,10.728,0,0,0,4.616-5.478h-9.625v-7.121h17.29Z" transform="translate(-243.232 -193.539)"/><path class="c" d="M57.632,319.69h0a18.006,18.006,0,0,1-27.124-5.507l5.833-4.775a10.705,10.705,0,0,0,15.427,5.481Z" transform="translate(-28.364 -287.654)"/><path class="d" d="M56.1,4.144,50.269,8.918a10.7,10.7,0,0,0-15.781,5.6l-5.864-4.8h0A18,18,0,0,1,56.1,4.144Z" transform="translate(-26.611)"/></svg>