<svg xmlns="http://www.w3.org/2000/svg" width="455.403" height="62.123" viewBox="0 0 455.403 62.123"><defs><style>.a{fill:#2d783f;}.b{fill:#8c8b8b;}.c{fill:#9e2d1a;}.d{fill:#941b11;}.e{fill:#b30619;}.f{fill:#8f0a12;}.g{fill:#3f8e39;}.h{fill:#164838;}.i{fill:#205f2d;}.j{fill:#e13515;}.k{fill:#ce3f20;}.l{fill:#f18e28;}.m{fill:#ee7325;}.n{fill:none;stroke:#8c8b8b;stroke-miterlimit:10;stroke-width:0.28px;}</style></defs><g transform="translate(-1326.853 -70)"><path class="a" d="M1198.661,82.553c0-9.957-4.651-15.981-12.259-15.981-7.672,0-12.386,6.085-12.386,15.981,0,10.017,4.714,16.226,12.386,16.226C1194.01,98.778,1198.661,92.632,1198.661,82.553Zm13.079-.124c0,16.226-10.123,26.983-25.4,26.983-15.4,0-25.338-10.511-25.338-26.8C1161,66.387,1170.935,56,1186.4,56S1211.74,66.325,1211.74,82.429Z" transform="translate(470.859 22.712)"/><path class="a" d="M1223.183,80.69c4.325,0,6.858-2.493,6.858-6.907s-2.409-6.717-6.858-6.717h-9.206V80.69Zm-22,28.721a70.908,70.908,0,0,0,.495-9.466V65.339a73.958,73.958,0,0,0-.495-9.339c2.9.128,5.129.191,9.083.191H1223.8c12.234,0,18.969,6.078,18.969,17.207,0,11.386-7.045,18.167-19.031,18.167h-9.763v8.187a85.884,85.884,0,0,0,.495,9.659Z" transform="translate(487.158 22.712)"/><path class="a" d="M1268.478,74.93c-1.195-5.593-4.526-8.359-9.933-8.359-7.67,0-12.136,5.9-12.136,16.042,0,10.019,4.654,16.1,12.449,16.1a9.99,9.99,0,0,0,8.237-3.872,10.336,10.336,0,0,0,1.888-5.285l13.077,1.9c-1.195,5.224-2.578,8.237-5.219,11.249-3.9,4.363-10,6.7-17.6,6.7-7.67,0-14.147-2.336-18.611-6.761-4.652-4.61-7.293-11.8-7.293-20.038,0-8.359,2.641-15.427,7.607-20.22,4.339-4.118,10.689-6.393,18.046-6.393,8.11,0,14.46,2.7,18.548,8.051a18.809,18.809,0,0,1,3.9,8.421Z" transform="translate(500.195 22.712)"/><path class="b" d="M1106.754,91.12v-2.89h1.675v2.89Zm-11.194-5.5c0,2.46.981,4.21,2.875,4.21,1.955,0,2.8-1.709,2.8-4.236,0-2.318-.946-3.929-2.853-3.929C1096.527,81.668,1095.56,83.3,1095.56,85.623ZM1103,85.59c0,3.094-1.324,5.7-4.667,5.7-3.245,0-4.53-2.716-4.53-5.652,0-2.806,1.5-5.427,4.661-5.427C1101.419,80.212,1103,82.511,1103,85.59Zm-13.025,1.283a4.98,4.98,0,0,1-5.247,4.444c-4.165,0-5.746-3.234-5.746-7.586,0-3.83,1.809-7.376,5.843-7.376a4.713,4.713,0,0,1,5.081,4.484h-1.772c-.361-1.7-1.251-2.954-3.372-2.954-2.8,0-3.95,2.782-3.95,5.853s.914,6.059,3.965,6.059c2.112,0,2.992-1.28,3.432-2.924Zm-29.651,1.147h1.689a2.186,2.186,0,0,0,2.349,1.914c1.445,0,2.013-.786,2.013-1.7,0-.967-.664-1.47-2.436-1.962-2.545-.706-3.219-1.657-3.219-3.088,0-1.41.945-2.976,3.5-2.976,2.519,0,3.5,1.428,3.638,3.071h-1.676a1.862,1.862,0,0,0-2.041-1.709c-1.178,0-1.723.588-1.723,1.469,0,.8.394,1.228,2.156,1.7,2.661.725,3.505,1.652,3.505,3.345,0,1.983-1.535,3.2-3.778,3.2C1062.142,91.3,1060.522,90.25,1060.321,88.02Zm-8.519-7.6h1.676V77.316h1.7v3.106h2.107v1.435h-2.107v6.686c0,.893.218,1.269,1.11,1.269a4.691,4.691,0,0,0,.81-.069v1.311a4.462,4.462,0,0,1-1.366.183c-1.518,0-2.252-.593-2.252-2.366V81.858H1051.8Zm-8.183,3.626c0-1.7-.013-3.1-.041-3.626h1.675c.035.5.042,1.185.042,2.166a3.515,3.515,0,0,1,3.379-2.363v1.82c-2.349.086-3.351,1.5-3.351,3.8v5.255h-1.7Zm-6.709,1.878h-1.654c-2.53,0-3.006,1.051-3.006,2.025a1.783,1.783,0,0,0,1.934,1.9c2.051,0,2.727-1.415,2.727-3.709Zm1.633,2.808a18.57,18.57,0,0,0,.157,2.371h-1.553a9.923,9.923,0,0,1-.152-1.652,3.076,3.076,0,0,1-3.158,1.841,3.042,3.042,0,0,1-3.333-3.241c0-1.608,1.015-3.393,4.755-3.393h1.6V83.625c0-1.013-.281-2.059-2.054-2.059a1.933,1.933,0,0,0-2.222,1.892h-1.668c.156-1.788,1.165-3.245,3.945-3.245,2.183,0,3.681.9,3.681,3.331Zm-18.763-5.388h2.694c1.848,0,3.094-.651,3.094-2.724,0-1.765-1.247-2.571-3.07-2.571h-2.718Zm-1.774-6.789h4.776c2.644,0,4.6,1.4,4.6,4.028,0,2.858-1.965,4.26-4.837,4.26h-2.768v6.259h-1.774Zm-20.4,7.209c0-2.228-.021-2.888-.042-3.345h1.677c.027.2.076,1.23.062,1.674a3.173,3.173,0,0,1,3.08-1.885c1.934,0,3.326,1.116,3.326,4v6.893h-1.719V84.485c0-1.555-.513-2.745-2.069-2.745-1.865,0-2.609,1.414-2.609,3.656v5.711h-1.7ZM990.9,85.927h-1.654c-2.53,0-3.006,1.051-3.006,2.025a1.782,1.782,0,0,0,1.933,1.9c2.052,0,2.728-1.415,2.728-3.709Zm1.633,2.808a18.548,18.548,0,0,0,.157,2.371h-1.553a9.782,9.782,0,0,1-.152-1.652,3.077,3.077,0,0,1-3.158,1.841,3.041,3.041,0,0,1-3.333-3.241c0-1.608,1.015-3.393,4.755-3.393h1.6V83.625c0-1.013-.281-2.059-2.052-2.059a1.932,1.932,0,0,0-2.222,1.892h-1.668c.156-1.788,1.165-3.245,3.945-3.245,2.183,0,3.681.9,3.681,3.331Zm-13.322-3.916c-.055-1.817-.766-3.188-2.579-3.188-2.068,0-2.558,1.914-2.652,3.188Zm-5.274,1.28c-.013,2.139.878,3.753,2.721,3.753a2.387,2.387,0,0,0,2.4-1.765h1.682a4.018,4.018,0,0,1-4.159,3.223c-3.268,0-4.378-2.631-4.378-5.579,0-2.623,1.259-5.52,4.475-5.52,3.273,0,4.227,2.613,4.227,5.077,0,.06-.009.744-.016.811Zm-5.361,1.6a4.039,4.039,0,0,1-4.2,3.612c-2.939,0-4.418-1.992-4.418-5.566,0-3.077,1.518-5.532,4.523-5.532a3.86,3.86,0,0,1,4.08,3.729H966.84a2.374,2.374,0,0,0-2.391-2.3c-1.9,0-2.728,1.7-2.728,4.068,0,2.739.967,4.169,2.706,4.169,1.446,0,2.069-.915,2.434-2.184Zm-22.687-3.976c0,3.413,1.351,6.075,4.17,6.075,2.921,0,4.163-2.623,4.163-6.041,0-3.324-1.275-5.879-4.159-5.879S945.891,80.5,945.891,83.722Zm4.073,7.6c-3.93,0-5.91-3.2-5.91-7.563,0-3.81,1.935-7.4,6.076-7.4,3.922,0,5.9,3.192,5.9,7.388C956.028,87.92,954.13,91.317,949.964,91.317Z" transform="translate(382.874 30.967)"/><path class="b" d="M1099.273,59.451a1.238,1.238,0,0,1,1.314,1.245,1.316,1.316,0,0,1-2.628,0A1.249,1.249,0,0,1,1099.273,59.451Zm-2.918-1.344a1.18,1.18,0,1,1,1.178,1.126A1.127,1.127,0,0,1,1096.355,58.108ZM1094.46,60.7a1.316,1.316,0,0,1,2.628,0,1.316,1.316,0,0,1-2.628,0Zm11.752,1.938v6.109c0,3.479-1.585,5.219-4.812,5.219a3.942,3.942,0,0,1-3.962-2.432,3.872,3.872,0,0,1-3.827,2.233h-6.378V71.827h2.533V64.116h1.893v7.711h1.933a2.812,2.812,0,0,0,3.035-2.985V64.116h1.895V69.1A2.7,2.7,0,0,0,1101.4,72c1.835,0,2.918-1.027,2.918-3.084V62.635Zm-18.593,11.129h-2.281v.1c0,3.262-1.2,4.25-3.574,4.25a6.47,6.47,0,0,1-1.508-.2l-.155-1.681a10.283,10.283,0,0,0,1.489.119c1.14,0,1.855-.573,1.855-2.2V62.773h1.893v9.055h2.281Zm-20-1.937h9.8V68.486a2.473,2.473,0,0,0-2.726-2.807h-5.334a3.812,3.812,0,0,1-.638-1.938l3.015-6.01h2.321l-3.209,5.991h3.653c3.207,0,4.851,1.642,4.851,5.042v5h-11.732Zm-4.558-12.91a1.355,1.355,0,0,1,2.706,0,1.355,1.355,0,0,1-2.706,0Zm-3.576,0a1.355,1.355,0,0,1,2.706,0,1.355,1.355,0,0,1-2.706,0Zm4.271,5.773h-1.294c-2.359,0-4,1.384-4,3.6v.02c0,2.135,1.663,3.52,4,3.52h1.294Zm4.252,7.137v1.937h-5.411c-3.556,0-5.934-2.174-5.934-5.456v-.02c0-3.321,2.456-5.515,6.186-5.515h.908v-.988h1.895V71.827Zm-18.61-1.8c0-2.373-1.352-3.974-3.4-3.974h-.02c-2.068,0-3.439,1.6-3.439,3.974v.02c0,2.353,1.372,3.914,3.439,3.914h.02c2.049,0,3.4-1.581,3.4-3.914Zm1.895.039v.02c0,3.48-2.127,5.832-5.3,5.832h-.02a5.011,5.011,0,0,1-4.31-2.155H1039V71.827h1.817a7.185,7.185,0,0,1-.194-1.74v-.02c0-3.579,2.146-5.951,5.354-5.951h.02C1049.164,64.116,1051.291,66.489,1051.291,70.068Zm-11.9,1.76v1.937h-12.061V71.827h7.867a16.661,16.661,0,0,0,.444-3.559c0-2.392-1.334-3.855-3.5-3.855a5.327,5.327,0,0,0-3.092.97l-.676-1.779a7.907,7.907,0,0,1,3.9-1.127c3.344,0,5.161,2.214,5.161,5.891a19.944,19.944,0,0,1-.367,3.461Zm-12.91,5.4a1.356,1.356,0,1,1-1.352-1.266A1.266,1.266,0,0,1,1026.477,77.225Zm-3.576,0a1.356,1.356,0,1,1-1.352-1.266A1.266,1.266,0,0,1,1022.9,77.225Zm4.813-3.46h-8.446V71.827h3.092V62.773h1.895v9.055h3.459Zm-15.922-9.055h-4.91v7.118h8.523V67.992C1015.425,65.7,1013.976,64.71,1011.792,64.71Zm7.865,7.118v1.937h-17.144l.387-1.937h2.087v-14.1h1.895v5.042h4.755c3.711,0,5.7,1.957,5.681,5.535l-.018,3.52Zm-24.738-14.1h1.895V73.764h-1.895Zm-3.361,0V73.764h-5.142V71.827h3.247v-14.1Zm-9.18,1.583a1.355,1.355,0,0,1,2.707,0,1.355,1.355,0,0,1-2.707,0Zm-3.574,0a1.355,1.355,0,0,1,2.706,0,1.355,1.355,0,0,1-2.706,0Zm4,12.514V64.69H981.51c-2.359,0-4,1.384-4,3.6v.02c0,2.135,1.663,3.52,4,3.52Zm4.252,0v1.937H974.05V71.827h2.88a5.239,5.239,0,0,1-1.219-3.52v-.02c0-3.321,2.456-5.515,6.186-5.515h2.8v9.055ZM966.572,64.71h-4.908v7.118h8.523V67.992C970.205,65.7,968.756,64.71,966.572,64.71Zm7.867,7.118v1.937H957.72V71.827h2.049V57.573h1.895v5.2h4.754c3.711,0,5.7,1.957,5.683,5.535l-.02,3.52Zm-19.615-5.951a5.834,5.834,0,0,0-3.653-1.463,5.967,5.967,0,0,0-3.653,1.444l2.262,5.971h2.706Zm3.285,7.888h-8.948c-1.219,0-1.837.475-2.359,1.779l-1.082,2.748L944,77.62l1.2-3.025c.637-1.661,1.449-2.471,2.821-2.689l-2.609-7.018a8.059,8.059,0,0,1,11.518.02l-2.569,6.92h3.749Z" transform="translate(382.853 23.117)"/><path class="c" d="M1148.724,77.715l-17.342,19.062L1132.8,86.74a17.19,17.19,0,0,0,7.908-14.536,3.8,3.8,0,0,0-.044-.7h.044Z" transform="translate(458.848 28.999)"/><path class="d" d="M1158.956,72.047l-17.476,30.762-.09-.045-10.009-6.145,17.342-19.061,10.145-5.671Z" transform="translate(458.848 29.155)"/><path class="e" d="M1138.661,91.134l10.008,6.144.09.045-.09.159h-35.147l-.088-.159.088-.045.22-11.861Z" transform="translate(451.568 34.642)"/><path class="f" d="M1138.572,92.38l-24.918-5.718,9.1-3.868a16.653,16.653,0,0,0,17.231-.451Z" transform="translate(451.658 33.395)"/><path class="g" d="M1118.786,92.572l-.22,11.861-.088.046L1101,73.716l.178-.292,10.035-5.651Z" transform="translate(446.526 27.486)"/><path class="h" d="M1116.327,74.187a17.191,17.191,0,0,0,8.616,14.517l-9.1,3.868-7.573-24.8,8.038,6.415Z" transform="translate(449.473 27.486)"/><path class="i" d="M1116.3,79.215a3.3,3.3,0,0,0,.022.471h-.022l-8.04-6.415,17.343-19.057-1.352,10.438a17.166,17.166,0,0,0-7.951,14.563" transform="translate(449.473 21.987)"/><path class="a" d="M1111.161,74.98l-10.035,5.651L1118.514,50h.331l9.658,5.923Z" transform="translate(446.577 20.278)"/><path class="j" d="M1128.59,62.044a16.714,16.714,0,0,0-8.948,2.606l1.352-10.436,24.917,5.736-9.767,3.916a16.385,16.385,0,0,0-7.553-1.822" transform="translate(454.086 21.987)"/><path class="k" d="M1141.15,58.295l7.574,24.777-8.017-6.214h-.044a17.1,17.1,0,0,0-9.282-14.647Z" transform="translate(458.848 23.642)"/><path class="l" d="M1138.573,50l17.478,30.765-10.145,5.671-7.574-24.777Z" transform="translate(461.666 20.278)"/><path class="m" d="M1113.733,50h34.816l-.241,11.659-24.917-5.736Z" transform="translate(451.69 20.278)"/><line class="n" y2="62" transform="translate(1519 70)"/></g></svg>