<svg xmlns="http://www.w3.org/2000/svg" xmlns:xlink="http://www.w3.org/1999/xlink" width="103.779" height="150.164" viewBox="0 0 103.779 150.164"><defs><style>.a{fill:#454545;stroke:#454545;}.b{fill:#fff;}.c,.d{fill:none;stroke:#646464;}.c{stroke-width:5px;}.d{stroke-width:4px;}.e{fill:#646464;stroke:#707070;}.f{isolation:isolate;}.g{clip-path:url(#a);}</style><clipPath id="a"><rect class="a" width="26.22" height="16.159"/></clipPath></defs><g transform="translate(2.5 2.5)"><path class="b" d="M508.3,450.6h83.046c4.345,0,7.867,3.863,7.867,8.625V587.142c0,4.763-3.522,8.625-7.867,8.625H508.3c-4.345,0-7.866-3.861-7.866-8.625V459.228C500.436,454.466,503.957,450.6,508.3,450.6Z" transform="translate(-500.436 -450.603)"/><path class="c" d="M508.3,450.6h83.046c4.345,0,7.867,3.863,7.867,8.625V587.142c0,4.763-3.522,8.625-7.867,8.625H508.3c-4.345,0-7.866-3.861-7.866-8.625V459.228C500.436,454.466,503.957,450.6,508.3,450.6Z" transform="translate(-500.436 -450.603)"/><path class="d" d="M506.256,492.676h20.606V472.212H506.256Zm21.4.79h-22.2V471.422h22.2Z" transform="translate(-493.152 -442.16)"/><path class="d" d="M506.256,516.358h20.606V495.9H506.256Zm21.4.791h-22.2V495.1h22.2Z" transform="translate(-493.152 -432.555)"/><path class="d" d="M506.256,540.041h20.606V519.577H506.256Zm21.4.79h-22.2V518.787h22.2Z" transform="translate(-493.152 -422.95)"/><rect class="e" width="43.137" height="2.261" transform="translate(43.652 98.779)"/><rect class="e" width="43.137" height="2.261" transform="translate(43.652 63.758)"/><rect class="e" width="43.137" height="2.261" transform="translate(43.652 32.205)"/><rect class="e" width="43.137" height="2.261" transform="translate(43.652 105.728)"/><rect class="e" width="43.137" height="2.261" transform="translate(43.652 70.707)"/><rect class="e" width="43.137" height="2.261" transform="translate(43.652 39.154)"/><rect class="e" width="43.137" height="2.261" transform="translate(43.652 112.677)"/><rect class="e" width="43.137" height="2.261" transform="translate(43.652 77.655)"/><rect class="e" width="43.137" height="2.261" transform="translate(43.652 46.103)"/><g class="f" transform="translate(16.153 63.758)"><g class="g"><path class="a" d="M527.563,469.5,513.826,479.53l-3.7-3.726L506.6,478.15l7.075,5.536,16.255-13.551Z" transform="translate(-505.259 -468.586)"/><path class="a" d="M527.563,469.5,513.826,479.53l-3.7-3.726L506.6,478.15l7.075,5.536,16.255-13.551Z" transform="translate(-505.259 -468.586)"/></g></g></g></svg>