<svg xmlns="http://www.w3.org/2000/svg" width="104.005" height="110.938" viewBox="0 0 104.005 110.938"><defs><style>.a{fill:#646464;}</style></defs><path class="a" d="M1122.649,471.177a14.813,14.813,0,1,1,29.625,0V477.5h-29.625Zm41.759,6.321h-5.83v-6.321a21.116,21.116,0,1,0-42.233,0V477.5h-5.83a3.125,3.125,0,0,0-3.153,3.161v29.71a9.476,9.476,0,0,0,9.455,9.482h41.288a9.474,9.474,0,0,0,9.454-9.482v-29.71a3.123,3.123,0,0,0-3.151-3.161Zm21.9,77.12h-12.606a3.161,3.161,0,0,0,0,6.321h12.606a3.161,3.161,0,0,0,0-6.321Zm-28.365,0H1145.34a3.161,3.161,0,0,0,0,6.321h12.606a3.161,3.161,0,0,0,0-6.321Zm-28.365,0h-12.606a3.161,3.161,0,0,0,0,6.321h12.606a3.161,3.161,0,0,0,0-6.321Zm-28.365,0H1088.61a3.161,3.161,0,0,0,0,6.321h12.606a3.161,3.161,0,0,0,0-6.321Zm83.249-15.8,4.075-4.087a3.156,3.156,0,1,0-4.457-4.469l-4.075,4.086-4.074-4.086a3.156,3.156,0,0,0-4.457,4.47l4.075,4.086-4.075,4.086a3.156,3.156,0,0,0,4.457,4.47l4.074-4.087,4.075,4.086a3.156,3.156,0,1,0,4.457-4.469Zm-24.291-8.556a3.142,3.142,0,0,0-4.456,0l-4.074,4.086-4.076-4.086a3.156,3.156,0,1,0-4.456,4.47l4.074,4.086-4.074,4.086a3.156,3.156,0,0,0,4.457,4.47l4.075-4.087,4.074,4.086a3.156,3.156,0,1,0,4.457-4.469l-4.076-4.086,4.075-4.087a3.164,3.164,0,0,0,0-4.469Zm-28.365,0a3.142,3.142,0,0,0-4.456,0l-4.076,4.086-4.075-4.086a3.156,3.156,0,0,0-4.457,4.47l4.076,4.086-4.076,4.086a3.156,3.156,0,0,0,4.457,4.47l4.075-4.087,4.076,4.086a3.155,3.155,0,1,0,4.456-4.469l-4.075-4.086,4.075-4.087A3.164,3.164,0,0,0,1131.81,530.258Zm-28.366,0a3.142,3.142,0,0,0-4.456,0l-4.075,4.086-4.076-4.086a3.156,3.156,0,1,0-4.456,4.47l4.075,4.086-4.075,4.086a3.156,3.156,0,0,0,4.457,4.47l4.075-4.087,4.075,4.086a3.156,3.156,0,1,0,4.457-4.469l-4.076-4.086,4.074-4.087a3.164,3.164,0,0,0,0-4.469Z" transform="translate(-1085.459 -450)"/></svg>