<svg xmlns="http://www.w3.org/2000/svg" width="73.621" height="25.042" viewBox="0 0 73.621 25.042"><defs><style>.a{fill:#84b740;}.b{fill:#259bd6;}.c{fill:#27292d;}</style></defs><g transform="translate(-9.491 -15.263)"><rect class="a" width="31.142" height="10.582" transform="translate(9.491 29.704)"/><rect class="b" width="31.142" height="10.592" transform="translate(9.491 15.263)"/><path class="c" d="M802.545,2195.463l-.139.03a4.548,4.548,0,0,1-1.01.132c-.812,0-1.773-.424-1.773-2.424,0-1.028.164-2.394,1.681-2.394h.009a4.57,4.57,0,0,1,1.111.214l.12.039Zm.248-9.967-.248.046v3.7l-.222-.065-.065-.018a4.985,4.985,0,0,0-1.377-.246c-3.033,0-3.672,2.336-3.672,4.3,0,2.688,1.479,4.234,4.059,4.234a8.091,8.091,0,0,0,2.711-.386,1.216,1.216,0,0,0,1.016-1.338v-10.613c-.722.131-1.47.266-2.2.389m8.766,10.034-.13.037-.461.123a4.761,4.761,0,0,1-1.12.18c-.711,0-1.137-.359-1.137-.97,0-.4.176-1.07,1.341-1.07h1.507Zm-1.063-6.668a10.142,10.142,0,0,0-3.089.546l-.775.237.259,1.792.757-.254a8.748,8.748,0,0,1,2.524-.433c.333,0,1.35,0,1.35,1.123v.489h-1.415c-2.579,0-3.772.84-3.772,2.641,0,1.54,1.1,2.461,2.95,2.461a9.4,9.4,0,0,0,2.051-.283l.037-.009.037.009.232.037c.722.132,1.47.266,2.2.408v-5.885c0-1.906-1.13-2.878-3.348-2.878m-16.9,6.668-.13.037-.463.123a4.675,4.675,0,0,1-1.118.18c-.713,0-1.137-.359-1.137-.97,0-.4.176-1.07,1.331-1.07h1.507Zm-1.056-6.668a10.083,10.083,0,0,0-3.086.546l-.778.237.259,1.792.757-.254a8.764,8.764,0,0,1,2.526-.433c.331,0,1.35,0,1.35,1.123v.489h-1.415c-2.582,0-3.783.84-3.783,2.641,0,1.54,1.1,2.461,2.959,2.461a9.414,9.414,0,0,0,2.054-.283l.037-.009.037.009.222.037c.729.132,1.47.266,2.2.417v-5.885c.009-1.927-1.118-2.887-3.339-2.887m-8.682.018a6.2,6.2,0,0,0-2.5.565l-.093.049-.083-.067a3.747,3.747,0,0,0-2.246-.556,8.937,8.937,0,0,0-2.653.408,1.273,1.273,0,0,0-1.093,1.356v6.726h2.461v-6.217l.12-.039a3.081,3.081,0,0,1,1.081-.2c.711,0,1.072.387,1.072,1.142v5.318h2.422v-5.423a1.894,1.894,0,0,0-.072-.546l-.083-.162.164-.074a2.848,2.848,0,0,1,1.2-.255c.488,0,1.072.2,1.072,1.142v5.318h2.412v-5.563c0-1.971-1.035-2.925-3.181-2.925m25.891-9.385a8.151,8.151,0,0,1-1.433-.132l-.139-.028v-3.63a1.8,1.8,0,0,0-.065-.519l-.074-.15.158-.067c.037-.018.074-.028.12-.046l.028-.019.164-.058a.235.235,0,0,1,.065-.019,5.69,5.69,0,0,1,1.266-.153h.009c1.507,0,1.683,1.371,1.683,2.4-.009,2-.979,2.422-1.783,2.422m-.009-6.9h-.065c-1.414,0-2.866.4-3.385,1.169a2.387,2.387,0,0,0-.444,1.406v3.746a1.138,1.138,0,0,1-.074.469l-.083.16h-4.466v-2.6h-.009c-.056-2.746-1.644-4.253-3.948-4.253h-2.246c-.093.667-.167,1.139-.26,1.811H797c1.176,0,1.794,1.019,1.794,2.584v2.621l-.157-.083a1.661,1.661,0,0,0-.526-.076h-3.867c-.074.5-.167,1.15-.269,1.8h11.882c.407-.086.88-.16,1.285-.227a6.55,6.55,0,0,0,2.489.464c2.579,0,4.253-1.764,4.253-4.481-.009-2.688-1.627-4.452-4.142-4.507m-20.832,9.856h.111c2.579,0,3.781-.868,3.781-3.01a2.725,2.725,0,0,0-2.95-2.765h-2.375a1.032,1.032,0,0,1-1.137-1.111c0-.472.176-1.056,1.341-1.056h5.2c.111-.689.167-1.123.269-1.811h-5.4c-2.516,0-3.783,1.075-3.783,2.866,0,1.774,1.1,2.7,2.95,2.7h2.378a1.135,1.135,0,0,1,1.137,1.178,1.173,1.173,0,0,1-1.331,1.215h-.4l-7.61-.019H779.7c-1.174,0-2-.678-2-2.253V2177.3c0-1.642.637-2.662,2-2.662h2.257c.1-.7.167-1.142.259-1.8h-3.079c-2.3,0-3.894,1.574-3.95,4.32v1.225c.056,2.744,1.646,4.054,3.95,4.054h2.246l4.123.012Z" transform="translate(-730.769 -2157.329)"/></g></svg>