<svg xmlns="http://www.w3.org/2000/svg" width="69.577" height="40.761" viewBox="0 0 69.577 40.761"><defs><style>.a{fill:#d3d3d3;}.b{fill:#e1e1e1;}</style></defs><g transform="translate(-864.699 -6115.529)"><path class="a" d="M663.972,3960h55.308a7.112,7.112,0,0,1,7.135,7.088v26.583a7.113,7.113,0,0,1-7.135,7.089H663.972a7.112,7.112,0,0,1-7.135-7.089v-26.583A7.111,7.111,0,0,1,663.972,3960Zm0,1.406a5.712,5.712,0,0,0-5.729,5.683v26.583a5.713,5.713,0,0,0,5.729,5.684h55.308a5.713,5.713,0,0,0,5.729-5.684v-26.583a5.712,5.712,0,0,0-5.729-5.683H663.972" transform="translate(207.862 2155.529)"/><rect class="b" width="23.397" height="7.763" transform="translate(871.829 6137.318)"/><rect class="b" width="23.397" height="7.77" transform="translate(871.829 6126.726)"/><path class="a" d="M701.135,3984.744l-.105.02a3.377,3.377,0,0,1-.758.1c-.61,0-1.332-.311-1.332-1.778,0-.753.124-1.757,1.262-1.757h.007a3.554,3.554,0,0,1,.835.157l.091.028Zm.186-7.313-.186.036v2.712l-.167-.049-.049-.013a3.782,3.782,0,0,0-1.035-.182c-2.278,0-2.759,1.716-2.759,3.156a2.8,2.8,0,0,0,3.05,3.106,6.213,6.213,0,0,0,2.037-.284.9.9,0,0,0,.763-.983v-7.784c-.543.1-1.1.194-1.654.284m6.586,7.361-.1.028-.346.09a3.637,3.637,0,0,1-.842.132c-.534,0-.855-.264-.855-.713,0-.291.132-.783,1.008-.783h1.133Zm-.8-4.89a7.748,7.748,0,0,0-2.321.4l-.583.174.2,1.314.568-.187a6.726,6.726,0,0,1,1.9-.318c.252,0,1.015,0,1.015.824v.358h-1.063c-1.938,0-2.834.617-2.834,1.938,0,1.129.826,1.806,2.215,1.806a7.252,7.252,0,0,0,1.542-.208l.028-.007.027.007.174.028c.543.1,1.1.194,1.654.3v-4.318c0-1.4-.849-2.11-2.515-2.11m-12.7,4.89-.1.028-.349.09a3.551,3.551,0,0,1-.839.132c-.536,0-.855-.264-.855-.713,0-.291.132-.783,1-.783H694.4Zm-.793-4.89a7.712,7.712,0,0,0-2.319.4l-.585.174.2,1.314.569-.187a6.719,6.719,0,0,1,1.9-.318c.249,0,1.013,0,1.013.824v.358h-1.063c-1.94,0-2.842.617-2.842,1.938,0,1.129.828,1.806,2.224,1.806a7.253,7.253,0,0,0,1.542-.208l.028-.007.028.007.167.028c.548.1,1.1.194,1.653.3v-4.316c.006-1.413-.84-2.117-2.509-2.117m-6.523.014a4.758,4.758,0,0,0-1.882.413l-.07.035-.062-.049a2.869,2.869,0,0,0-1.688-.406,6.854,6.854,0,0,0-1.993.3c-.592.178-.821.462-.821,1v4.934h1.85v-4.562l.09-.026a2.346,2.346,0,0,1,.812-.146.73.73,0,0,1,.805.839v3.9h1.819v-3.978a1.389,1.389,0,0,0-.053-.4l-.062-.116.122-.057a2.2,2.2,0,0,1,.905-.187.736.736,0,0,1,.805.839v3.9h1.812v-4.082c0-1.446-.777-2.143-2.389-2.143m19.453-6.886a6.2,6.2,0,0,1-1.077-.1l-.1-.021v-2.662a1.273,1.273,0,0,0-.049-.381l-.056-.111.118-.049c.028-.013.056-.02.091-.034l.021-.014.124-.042a.152.152,0,0,1,.048-.014,4.338,4.338,0,0,1,.952-.111h.007c1.133,0,1.265,1,1.265,1.76-.007,1.464-.737,1.777-1.34,1.777m-.007-5.064h-.049a3.286,3.286,0,0,0-2.543.857,1.724,1.724,0,0,0-.334,1.032v2.748a.817.817,0,0,1-.055.345l-.063.118H700.14v-1.909h-.007a2.851,2.851,0,0,0-2.966-3.121h-1.688c-.069.491-.125.836-.194,1.328h1.68c.884,0,1.348.747,1.348,1.9v1.922l-.118-.063a1.28,1.28,0,0,0-.4-.055h-2.9c-.056.367-.126.843-.2,1.321h8.927c.306-.062.662-.118.966-.166a5.041,5.041,0,0,0,1.871.338,3.3,3.3,0,0,0,.083-6.593m-15.652,7.23h.084c1.937,0,2.841-.637,2.841-2.207a2.026,2.026,0,0,0-2.217-2.028H689.81a.766.766,0,0,1-.853-.815c0-.346.132-.774,1.006-.774h3.9c.084-.506.125-.825.2-1.329h-4.057c-1.892,0-2.842.789-2.842,2.1s.828,1.979,2.215,1.979h1.786a.842.842,0,0,1,.855.864c0,.291-.132.891-1,.891h-.3l-5.718-.013h-1.042c-.881,0-1.5-.5-1.5-1.653v-.8c0-1.2.479-1.953,1.5-1.953h1.7c.076-.512.125-.837.194-1.321h-2.314a2.894,2.894,0,0,0-2.967,3.17v.9a2.736,2.736,0,0,0,2.967,2.974h1.688l3.1.007Z" transform="translate(217.49 2158.759)"/></g></svg>