<svg xmlns="http://www.w3.org/2000/svg" width="58.392" height="34.929" viewBox="0 0 58.392 34.929"><defs><style>.a{fill:#c00;}.a,.b,.c,.d{fill-rule:evenodd;}.b{fill:#f90;}.c{fill:#006;}.d{fill:#fff;}</style></defs><g transform="translate(-16.827 -10.794)"><path class="a" d="M750.207,2188.13a17.469,17.469,0,1,1-17.471-17.468,17.464,17.464,0,0,1,17.471,17.468" transform="translate(-698.441 -2159.869)"/><path class="b" d="M742.646,2170.663a17.4,17.4,0,0,0-11.726,4.521,17.741,17.741,0,0,0-1.764,1.848h3.528a18.087,18.087,0,0,1,1.331,1.849h-6.191a16.638,16.638,0,0,0-1.007,1.853h8.205a16.813,16.813,0,0,1,.739,1.848h-9.685a17.559,17.559,0,0,0-.509,1.849h10.7a17.681,17.681,0,0,1,.391,3.7,17.38,17.38,0,0,1-.9,5.545h-9.685a17.114,17.114,0,0,0,.741,1.85h8.205a16.807,16.807,0,0,1-1.009,1.853h-6.189a17.319,17.319,0,0,0,1.331,1.848h3.526a17.229,17.229,0,0,1-1.762,1.848,17.467,17.467,0,1,0,11.726-30.41" transform="translate(-684.896 -2159.869)"/><path class="c" d="M724.633,2184.783h-1.572l.035-.771a2.347,2.347,0,0,1-1.986.9,1.808,1.808,0,0,1-1.732-2.031c0-1.81,1.225-2.864,3.329-2.864a6.621,6.621,0,0,1,.773.057,1.823,1.823,0,0,0,.074-.48c0-.5-.331-.676-1.215-.676a6.12,6.12,0,0,0-2.01.333c.021-.125.266-1.674.266-1.674a7.343,7.343,0,0,1,2.269-.391c1.628,0,2.491.755,2.489,2.178a9.935,9.935,0,0,1-.153,1.473C725.033,2181.915,724.681,2184.223,724.633,2184.783Zm-1.38-3.311a3.226,3.226,0,0,0-.424-.03c-1.074,0-1.618.379-1.618,1.13a.671.671,0,0,0,.678.757C722.665,2183.33,723.218,2182.57,723.253,2181.473Z" transform="translate(-693.037 -2151.287)"/><path class="c" d="M723.355,2185.666h-1.9l1.087-7.022-2.426,7.022h-1.292l-.16-6.983-1.142,6.983h-1.775l1.483-9.136h2.727l.165,5.113,1.664-5.113h3.033l-1.467,9.136" transform="translate(-697.808 -2152.152)"/><path class="c" d="M737.538,2184.783h-1.572l.037-.771a2.348,2.348,0,0,1-1.986.9,1.808,1.808,0,0,1-1.734-2.031c0-1.81,1.227-2.864,3.329-2.864a6.582,6.582,0,0,1,.773.057,1.934,1.934,0,0,0,.074-.48c0-.5-.331-.676-1.218-.676a6.1,6.1,0,0,0-2.007.333c.021-.125.264-1.674.264-1.674a7.376,7.376,0,0,1,2.269-.391c1.63,0,2.491.755,2.489,2.178a9.547,9.547,0,0,1-.151,1.473C737.94,2181.915,737.584,2184.223,737.538,2184.783Zm-1.38-3.311a3.19,3.19,0,0,0-.421-.03c-1.076,0-1.621.379-1.621,1.13a.672.672,0,0,0,.681.757C735.567,2183.33,736.125,2182.57,736.158,2181.473Z" transform="translate(-676.064 -2151.287)"/><path class="c" d="M726.914,2185.22a4.261,4.261,0,0,1-1.364.241c-.968,0-1.5-.574-1.5-1.633a17.411,17.411,0,0,1,.259-1.98c.111-.7.822-5.07.822-5.07h1.885l-.218,1.123h1.139l-.259,1.787h-1.144c-.215,1.413-.53,3.172-.535,3.406,0,.382.2.55.653.55a1.468,1.468,0,0,0,.509-.072l-.25,1.647" transform="translate(-686.889 -2151.824)"/><path class="c" d="M729.646,2180.206c.012-.155.2-1.327-.877-1.327-.6,0-1.028.473-1.2,1.327Zm1.063,4.4a6.3,6.3,0,0,1-1.938.3c-2.109,0-3.209-1.142-3.209-3.315,0-2.542,1.4-4.411,3.3-4.411a2.448,2.448,0,0,1,2.547,2.688,8.161,8.161,0,0,1-.232,1.827h-3.753c-.13,1.079.539,1.528,1.637,1.528a4.365,4.365,0,0,0,1.961-.468Z" transform="translate(-684.902 -2151.287)"/><path class="c" d="M722.548,2179.7a2.164,2.164,0,0,0,1.443,2.075c.768.373.889.484.889.819,0,.466-.34.674-1.091.674a5.2,5.2,0,0,1-1.7-.294l-.262,1.715a8.536,8.536,0,0,0,1.975.223c2,0,2.924-.787,2.924-2.487a2.036,2.036,0,0,0-1.336-2.069c-.794-.375-.887-.461-.887-.806,0-.4.317-.606.928-.606a10.245,10.245,0,0,1,1.361.108l.271-1.72a12.416,12.416,0,0,0-1.669-.146c-2.121,0-2.855,1.141-2.848,2.514" transform="translate(-689.813 -2151.287)"/><path class="c" d="M736.616,2178.568a3.528,3.528,0,0,1,1.695.494l.31-1.984a5.485,5.485,0,0,0-2.084-.773,3.743,3.743,0,0,0-3.1,1.723c-1.1-.377-1.553.382-2.109,1.139l-.493.12a3.874,3.874,0,0,0,.06-.748h-1.743c-.236,2.3-.658,4.628-.989,6.929l-.086.5h1.9c.317-2.123.491-3.479.6-4.4l.718-.407c.106-.407.44-.546,1.109-.529a8.523,8.523,0,0,0-.134,1.523c0,2.43,1.274,3.945,3.315,3.945a5.745,5.745,0,0,0,1.676-.269l.334-2.084a3.593,3.593,0,0,1-1.612.468c-1.1,0-1.771-.836-1.771-2.223,0-2.011.991-3.422,2.408-3.422" transform="translate(-681.588 -2152.448)"/><path class="c" d="M741.433,2183.948c-.644,0-.97-.492-.97-1.465,0-1.461.611-2.494,1.47-2.494.651,0,1,.51,1,1.452C742.938,2182.916,742.317,2183.948,741.433,2183.948Zm2.373-7.417-.421,2.637a2.371,2.371,0,0,0-1.811-1.21,2.951,2.951,0,0,0-2.4,1.847,15.34,15.34,0,0,1-1.616-.456v.007c.063-.619.09-.993.086-1.121H735.9c-.239,2.3-.658,4.628-.989,6.929l-.088.5h1.9c.255-1.713.451-3.14.6-4.267.648-.607.972-1.132,1.627-1.1a6.555,6.555,0,0,0-.461,2.413c0,1.854.912,3.082,2.29,3.082a2.2,2.2,0,0,0,1.748-.822l-.088.692h1.794l1.445-9.134Z" transform="translate(-672.72 -2152.151)"/><path class="d" d="M723.59,2185.437h-1.9l1.087-7.022-2.426,7.022h-1.293l-.16-6.981-1.142,6.981h-1.775l1.483-9.135H720.2l.076,5.656,1.84-5.656h2.946l-1.467,9.135" transform="translate(-697.498 -2152.451)"/><path class="d" d="M724.869,2184.554H723.3l.035-.769a2.346,2.346,0,0,1-1.986.9,1.808,1.808,0,0,1-1.732-2.031c0-1.81,1.227-2.864,3.329-2.864a6.3,6.3,0,0,1,.773.058,1.862,1.862,0,0,0,.076-.481c0-.494-.334-.676-1.218-.676a6.094,6.094,0,0,0-2.007.333c.018-.125.262-1.669.262-1.669a7.329,7.329,0,0,1,2.271-.4c1.628,0,2.491.755,2.489,2.178a9.623,9.623,0,0,1-.153,1.472C725.272,2181.684,724.917,2183.994,724.869,2184.554Zm-1.38-3.308a2.9,2.9,0,0,0-.423-.032c-1.074,0-1.618.38-1.618,1.13a.675.675,0,0,0,.681.76C722.9,2183.1,723.456,2182.343,723.489,2181.246Z" transform="translate(-692.727 -2151.588)"/><path class="d" d="M736.48,2176.678l-.31,1.984a3.528,3.528,0,0,0-1.695-.493c-1.415,0-2.408,1.412-2.408,3.424,0,1.387.667,2.222,1.771,2.222a3.583,3.583,0,0,0,1.609-.468l-.333,2.082a5.733,5.733,0,0,1-1.674.266c-2.044,0-3.315-1.512-3.315-3.945,0-3.265,1.76-5.548,4.272-5.548a6.439,6.439,0,0,1,2.084.475" transform="translate(-678.901 -2152.581)"/><path class="d" d="M737.774,2184.554H736.2l.035-.769a2.352,2.352,0,0,1-1.986.9,1.808,1.808,0,0,1-1.734-2.031c0-1.81,1.225-2.864,3.329-2.864a6.231,6.231,0,0,1,.771.058,1.857,1.857,0,0,0,.076-.481c0-.494-.331-.676-1.218-.676a6.118,6.118,0,0,0-2.007.333c.021-.125.264-1.669.264-1.669a7.316,7.316,0,0,1,2.271-.4c1.628,0,2.489.755,2.489,2.178a9.979,9.979,0,0,1-.153,1.472C738.174,2181.684,737.824,2183.994,737.774,2184.554Zm-1.38-3.308a2.879,2.879,0,0,0-.424-.032c-1.074,0-1.618.38-1.618,1.13a.675.675,0,0,0,.681.76C735.806,2183.1,736.361,2182.343,736.394,2181.246Z" transform="translate(-675.754 -2151.588)"/><path class="d" d="M727.151,2184.99a4.217,4.217,0,0,1-1.364.243c-.97,0-1.5-.574-1.5-1.633a17.713,17.713,0,0,1,.262-1.981c.109-.694.822-5.07.822-5.07h1.884l-.22,1.125H728l-.257,1.784h-.972c-.22,1.415-.53,3.174-.535,3.406,0,.387.2.551.651.551a1.46,1.46,0,0,0,.512-.072l-.25,1.646" transform="translate(-686.58 -2152.126)"/><path class="d" d="M729.882,2179.977c.012-.155.2-1.327-.878-1.327-.6,0-1.028.473-1.2,1.327Zm1.06,4.406a6.336,6.336,0,0,1-1.936.3c-2.109,0-3.209-1.141-3.209-3.315,0-2.54,1.4-4.411,3.3-4.411a2.449,2.449,0,0,1,2.549,2.69,8.21,8.21,0,0,1-.234,1.826h-3.753c-.127,1.079.542,1.529,1.639,1.529a4.364,4.364,0,0,0,1.961-.468Z" transform="translate(-684.592 -2151.588)"/><path class="d" d="M722.782,2179.474a2.163,2.163,0,0,0,1.445,2.072c.766.375.887.484.887.822,0,.463-.34.671-1.088.671a5.221,5.221,0,0,1-1.7-.292l-.259,1.713a8.5,8.5,0,0,0,1.973.222c2,0,2.926-.784,2.926-2.482a2.031,2.031,0,0,0-1.336-2.069c-.8-.38-.887-.464-.887-.808,0-.406.312-.609.926-.609a9.992,9.992,0,0,1,1.364.113l.271-1.725a12.436,12.436,0,0,0-1.669-.146c-2.123,0-2.857,1.143-2.85,2.516" transform="translate(-689.503 -2151.588)"/><path class="d" d="M739.588,2183.719c.884,0,1.5-1.032,1.5-2.5,0-.945-.354-1.457-1-1.457-.864,0-1.47,1.032-1.47,2.5C738.618,2183.226,738.944,2183.719,739.588,2183.719Zm2.8,1.716h-1.792l.088-.693a2.193,2.193,0,0,1-1.748.823c-1.38,0-2.29-1.225-2.29-3.083,0-2.472,1.412-4.556,3.086-4.556a2.127,2.127,0,0,1,1.811,1.015l.421-2.639h1.871Z" transform="translate(-670.328 -2152.452)"/><path class="d" d="M736.136,2177.075c-.239,2.3-.66,4.63-.991,6.929l-.083.5h1.894c.681-4.544.843-5.429,1.908-5.32a7.5,7.5,0,0,1,.72-2.155c-.794-.169-1.236.292-1.82,1.174a6.98,6.98,0,0,0,.116-1.13h-1.743" transform="translate(-672.408 -2151.538)"/><path class="d" d="M729.394,2177.075c-.236,2.3-.66,4.63-.989,6.929l-.088.5h1.9c.681-4.544.84-5.429,1.9-5.32a7.569,7.569,0,0,1,.722-2.155c-.794-.169-1.239.292-1.817,1.174a7.23,7.23,0,0,0,.113-1.13h-1.743" transform="translate(-681.279 -2151.538)"/></g></svg>