<svg xmlns="http://www.w3.org/2000/svg" width="57.235" height="42.857" viewBox="0 0 57.235 42.857"><defs><style>.a{fill:#fff;opacity:0.8;}</style></defs><path class="a" d="M847.129,3974.221a16.86,16.86,0,0,1-6.413,13.237,16.877,16.877,0,1,0,0-26.475A16.864,16.864,0,0,1,847.129,3974.221Zm-15.316,0a16.867,16.867,0,0,1,6.412-13.238,16.878,16.878,0,1,0,.024,26.5A16.92,16.92,0,0,1,831.813,3974.221Zm1.081,0c0,8.049,6.621,12.545,6.621,12.545a15.573,15.573,0,0,0,6.622-12.545c0-8.077-6.622-12.546-6.622-12.546S832.894,3966.007,832.894,3974.221Zm14.768,22.383a1.747,1.747,0,0,1,.477-.317,1.589,1.589,0,0,1,.589-.113,1.842,1.842,0,0,1,.632.113,1.4,1.4,0,0,1,.5.293l.5-.815a1.943,1.943,0,0,0-.635-.362,2.425,2.425,0,0,0-.994-.181,2.791,2.791,0,0,0-1,.181,2.4,2.4,0,0,0-.792.521,2.223,2.223,0,0,0-.522.769,2.36,2.36,0,0,0-.179.974,2.713,2.713,0,0,0,.179.973,2.328,2.328,0,0,0,.522.771,2.676,2.676,0,0,0,.792.519,2.424,2.424,0,0,0,1,.181,2.754,2.754,0,0,0,.994-.181,2.524,2.524,0,0,0,.635-.362l-.5-.815a1.194,1.194,0,0,1-.5.293,1.94,1.94,0,0,1-.632.115,1.69,1.69,0,0,1-.589-.115,1.314,1.314,0,0,1-.477-.316,1.731,1.731,0,0,1-.316-.475,1.69,1.69,0,0,1,0-1.222C847.437,3996.9,847.551,3996.74,847.662,3996.6Zm16.613,1.087a1.691,1.691,0,0,0-.113-.59,1.741,1.741,0,0,0-.293-.475,1.284,1.284,0,0,0-.454-.317,1.47,1.47,0,0,0-.567-.114,1.243,1.243,0,0,0-.588.114,1.105,1.105,0,0,0-.452.317,1.6,1.6,0,0,0-.271.475,1.935,1.935,0,0,0,0,1.178,1.257,1.257,0,0,0,.723.792,1.5,1.5,0,0,0,.588.113,1.566,1.566,0,0,0,.567-.113,1.1,1.1,0,0,0,.454-.317,1.316,1.316,0,0,0,.293-.475A2.3,2.3,0,0,0,864.274,3997.691Zm-.068-4.209h1.019v6.585h-1.019v-.566a1.641,1.641,0,0,1-.61.5,1.939,1.939,0,0,1-.861.182,2.5,2.5,0,0,1-.927-.182,2.222,2.222,0,0,1-.748-.521,2.268,2.268,0,0,1-.5-.768,2.885,2.885,0,0,1-.181-1,2.771,2.771,0,0,1,.181-.994,2.506,2.506,0,0,1,.5-.771,2.112,2.112,0,0,1,.748-.521,2.523,2.523,0,0,1,.927-.181,1.73,1.73,0,0,1,.861.181,1.642,1.642,0,0,1,.61.5Zm-4.773,1.741a1.664,1.664,0,0,0-.77.159,1.819,1.819,0,0,0-.588.588v-.61h-.929v4.686h.929v-2.581a1.364,1.364,0,0,1,.089-.543.921.921,0,0,1,.226-.385,1.027,1.027,0,0,1,.362-.249,1.461,1.461,0,0,1,.454-.092,3.2,3.2,0,0,1,.406.046c.068.024.137.024.2.046l.294-.973c-.089-.023-.158-.046-.247-.068C859.726,3995.246,859.59,3995.223,859.433,3995.223Zm-14.214,0a1.662,1.662,0,0,0-.769.159,1.823,1.823,0,0,0-.589.588v-.61h-.928v4.686h.928v-2.581a1.361,1.361,0,0,1,.09-.543.921.921,0,0,1,.227-.385,1,1,0,0,1,.362-.249,1.452,1.452,0,0,1,.453-.092,3.224,3.224,0,0,1,.406.046c.068.024.137.024.205.046l.293-.973c-.089-.023-.158-.046-.248-.068C845.536,3995.246,845.378,3995.223,845.219,3995.223Zm-9.211,3.872a1.2,1.2,0,0,1-.475.089,1.169,1.169,0,0,1-.3-.044.546.546,0,0,1-.225-.158.776.776,0,0,1-.158-.272,1.062,1.062,0,0,1-.068-.409v-2.035h1.63v-.93h-1.63v-1.424h-1.019v1.424h-.952v.93h.928v2.059a1.905,1.905,0,0,0,.453,1.38,1.678,1.678,0,0,0,1.245.454,2.124,2.124,0,0,0,.791-.138c.159-.066.3-.134.43-.2l-.339-.86C836.21,3999,836.12,3999.046,836.007,3999.094Zm18.831-1.4a1.748,1.748,0,0,0-.113-.59,1.711,1.711,0,0,0-.3-.475,1.273,1.273,0,0,0-.451-.317,1.49,1.49,0,0,0-.566-.114,1.242,1.242,0,0,0-.589.114,1.111,1.111,0,0,0-.453.317,1.652,1.652,0,0,0-.271.475,1.956,1.956,0,0,0,0,1.178,1.659,1.659,0,0,0,.271.475,1.533,1.533,0,0,0,.453.317,1.506,1.506,0,0,0,.589.113,1.576,1.576,0,0,0,.566-.113,1.11,1.11,0,0,0,.451-.317,1.3,1.3,0,0,0,.3-.475A1.751,1.751,0,0,0,854.838,3997.691Zm-.068-2.31h1.018v4.686H854.77v-.566a1.849,1.849,0,0,1-.613.5,1.929,1.929,0,0,1-.86.182,2.516,2.516,0,0,1-.928-.182,2.2,2.2,0,0,1-.745-.521,2.274,2.274,0,0,1-.5-.768,2.884,2.884,0,0,1-.179-1,2.772,2.772,0,0,1,.179-.994,2.513,2.513,0,0,1,.5-.771,2.113,2.113,0,0,1,.745-.521,2.535,2.535,0,0,1,.928-.181,1.716,1.716,0,0,1,.86.181,1.641,1.641,0,0,1,.613.5Zm-14.031,1.9a1.4,1.4,0,0,0-.385-.86,1.077,1.077,0,0,0-.794-.3,1.507,1.507,0,0,0-.475.092.885.885,0,0,0-.362.228,1.434,1.434,0,0,0-.248.361,1.879,1.879,0,0,0-.137.475Zm.9-.589a2.8,2.8,0,0,1,.158,1v.2c0,.068-.023.115-.023.18h-3.463a1.4,1.4,0,0,0,.183.543,1.644,1.644,0,0,0,.316.364,1.173,1.173,0,0,0,.409.2,1.678,1.678,0,0,0,.475.069,1.9,1.9,0,0,0,.7-.137,2.259,2.259,0,0,0,.656-.361l.5.723a2.274,2.274,0,0,1-.907.521,3.686,3.686,0,0,1-1.019.136,2.659,2.659,0,0,1-.973-.18,2.05,2.05,0,0,1-.747-.5,1.961,1.961,0,0,1-.5-.771,3.01,3.01,0,0,1-.18-1.018,2.8,2.8,0,0,1,.18-1,2.431,2.431,0,0,1,.475-.768,2.378,2.378,0,0,1,.749-.5,2.613,2.613,0,0,1,.949-.181,2.3,2.3,0,0,1,.9.181,1.9,1.9,0,0,1,.7.5A2.246,2.246,0,0,1,841.643,3996.693Zm-10.027,1a2.634,2.634,0,0,0-1.2-.453l-.476-.068a1.569,1.569,0,0,0-.293-.046.779.779,0,0,1-.248-.089,1.024,1.024,0,0,1-.16-.137.277.277,0,0,1-.067-.2.475.475,0,0,1,.227-.406,1.081,1.081,0,0,1,.655-.16,2.613,2.613,0,0,1,.43.047c.137.021.272.067.409.091a2.758,2.758,0,0,1,.339.134c.112.047.18.092.272.137l.43-.792a3.08,3.08,0,0,0-.86-.363,3.863,3.863,0,0,0-1.041-.136,3.044,3.044,0,0,0-.815.113,1.726,1.726,0,0,0-.613.293,1.585,1.585,0,0,0-.384.475,1.385,1.385,0,0,0-.135.636,1.111,1.111,0,0,0,.406.9,2.262,2.262,0,0,0,1.177.453l.5.066a2.272,2.272,0,0,1,.611.182.4.4,0,0,1,.2.34.431.431,0,0,1-.272.406,1.509,1.509,0,0,1-.791.159,3.711,3.711,0,0,1-.519-.044,1.7,1.7,0,0,1-.409-.115,1.17,1.17,0,0,1-.339-.158c-.091-.068-.18-.113-.272-.181l-.475.769a2.052,2.052,0,0,0,.543.317,5.259,5.259,0,0,0,.543.183,4.89,4.89,0,0,0,.5.089,2.728,2.728,0,0,0,.43.024,3.715,3.715,0,0,0,.906-.113,1.942,1.942,0,0,0,.68-.317,1.353,1.353,0,0,0,.406-.475,1.367,1.367,0,0,0,.137-.612A1.094,1.094,0,0,0,831.617,3997.691Zm-5.635,0a1.688,1.688,0,0,0-.113-.59,1.712,1.712,0,0,0-.3-.475,1.264,1.264,0,0,0-.451-.317,1.48,1.48,0,0,0-.567-.114,1.245,1.245,0,0,0-.589.114,1.111,1.111,0,0,0-.453.317,1.69,1.69,0,0,0,0,2.127,1.634,1.634,0,0,0,.453.317,1.507,1.507,0,0,0,.589.113,1.577,1.577,0,0,0,.567-.113,1.1,1.1,0,0,0,.451-.317,1.3,1.3,0,0,0,.3-.475A1.69,1.69,0,0,0,825.982,3997.691Zm-.068-2.31h1.018v4.686h-1.018v-.566a1.636,1.636,0,0,1-.611.5,1.929,1.929,0,0,1-.86.182,2.528,2.528,0,0,1-.929-.182,2.211,2.211,0,0,1-.745-.521,2.252,2.252,0,0,1-.5-.768,2.914,2.914,0,0,1-.18-1,2.8,2.8,0,0,1,.18-.994,2.486,2.486,0,0,1,.5-.771,2.125,2.125,0,0,1,.745-.521,2.547,2.547,0,0,1,.929-.181,1.722,1.722,0,0,1,.86.181,1.637,1.637,0,0,1,.611.5Zm-4.911.95a2,2,0,0,1,.135.747v2.941h-1v-2.6a1.357,1.357,0,0,0-.271-.907.978.978,0,0,0-.77-.317,1.46,1.46,0,0,0-.454.092.88.88,0,0,0-.362.225,1.313,1.313,0,0,0-.248.385,1.189,1.189,0,0,0-.092.522v2.6h-.994v-2.6a1.357,1.357,0,0,0-.272-.907.976.976,0,0,0-.77-.317,1.437,1.437,0,0,0-.451.092.868.868,0,0,0-.363.225,1.29,1.29,0,0,0-.249.385,1.192,1.192,0,0,0-.091.522v2.6h-1v-4.684h.974v.568a1.371,1.371,0,0,1,.294-.34,1.45,1.45,0,0,1,.362-.2,1.7,1.7,0,0,1,.362-.113,2.049,2.049,0,0,1,.362-.023,1.805,1.805,0,0,1,.928.228.5.5,0,1,0,.974.2,2.591,2.591,0,0,1,.407-.249,1.719,1.719,0,0,1,.452-.136,3.481,3.481,0,0,1,.452-.045,1.975,1.975,0,0,1,.747.136,1.8,1.8,0,0,1,.589.385A1.113,1.113,0,0,1,821,3996.332Z" transform="translate(-810.864 -3957.323)"/></svg>