<svg xmlns="http://www.w3.org/2000/svg" width="45.389" height="46.504" viewBox="0 0 45.389 46.504"><defs><style>.a{fill:none;}.b{fill:#2d783f;}.c{fill:#ee7325;}</style></defs><g transform="translate(-516.086 -90.496)"><rect class="a" width="45" height="45" transform="translate(516.277 90.496)"/><g transform="translate(516.086 92)"><path class="b" d="M342.491,3551.619a1.423,1.423,0,0,1,1.42-1.418H351v5.673a1.891,1.891,0,1,0,3.782,0V3550.2h7.092a1.421,1.421,0,0,1,1.418,1.418v17.966a1.422,1.422,0,0,1-1.418,1.418H343.911a1.423,1.423,0,0,1-1.42-1.418Z" transform="translate(-342.491 -3526.168)"/><path class="c" d="M325.746,3535.128a1.425,1.425,0,0,1,1.418-1.42h7.092v5.675a1.891,1.891,0,0,0,3.782,0v-5.675h7.091a1.423,1.423,0,0,1,1.418,1.42v17.966a1.422,1.422,0,0,1-1.418,1.418H327.164a1.424,1.424,0,0,1-1.418-1.418Z" transform="translate(-301.16 -3533.708)"/><path class="b" d="M342.491,3535.618a1.423,1.423,0,0,1,1.418-1.418H351v5.673a1.891,1.891,0,1,0,3.782,0V3534.2h7.092a1.422,1.422,0,0,1,1.418,1.418v17.966a1.422,1.422,0,0,1-1.418,1.418H343.909a1.423,1.423,0,0,1-1.418-1.418Z" transform="translate(-342.491 -3534.199)"/><rect class="a" width="45" height="45" transform="translate(0.197)"/><path class="b" d="M325,3551.619a1.421,1.421,0,0,1,1.418-1.418h7.091v5.673a1.891,1.891,0,1,0,3.782,0V3550.2h7.092a1.421,1.421,0,0,1,1.418,1.418v17.966a1.421,1.421,0,0,1-1.418,1.418H326.418a1.422,1.422,0,0,1-1.418-1.418Z" transform="translate(-300.414 -3526.002)"/></g></g></svg>