<svg xmlns="http://www.w3.org/2000/svg" width="69.577" height="40.761" viewBox="0 0 69.577 40.761"><defs><style>.a,.c,.d{fill:#fff;}.a{fill-rule:evenodd;opacity:0;}.b{fill:#d3d3d3;}.d{font-size:9px;font-family:Cairo-Black, Cairo;font-weight:800;}</style></defs><g transform="translate(-774.771 -6115.529)"><path class="a" d="M604.972,3960h55.307a7.112,7.112,0,0,1,7.135,7.088v26.583a7.113,7.113,0,0,1-7.135,7.089H604.972a7.112,7.112,0,0,1-7.135-7.089v-26.583A7.111,7.111,0,0,1,604.972,3960Z" transform="translate(176.934 2155.529)"/><path class="b" d="M604.972,3960h55.307a7.112,7.112,0,0,1,7.135,7.088v26.583a7.113,7.113,0,0,1-7.135,7.089H604.972a7.112,7.112,0,0,1-7.135-7.089v-26.583A7.111,7.111,0,0,1,604.972,3960Zm0,1.406a5.712,5.712,0,0,0-5.729,5.683v26.583a5.713,5.713,0,0,0,5.729,5.684h55.307a5.713,5.713,0,0,0,5.729-5.684v-26.583a5.712,5.712,0,0,0-5.729-5.683H604.972" transform="translate(176.934 2155.529)"/><path class="c" d="M612.881,3971.6v1.545h-5.913V3971.6H610.1a2.443,2.443,0,0,0-.453-1.555,1.3,1.3,0,0,0-1-.482h-1.131l-.128-1.348a9.263,9.263,0,0,1,1.692-.226,2.476,2.476,0,0,1,1.466.433,2.687,2.687,0,0,1,.929,1.24,5.16,5.16,0,0,1,.32,1.909v.03Zm4.644,0v1.545h-4.644V3971.6h1.466v-3.375h1.692v3.375Zm-3.109-5.874h1.525v1.584h-1.525Z" transform="translate(180.637 2157.849)"/><path class="c" d="M619.989,3971.6v1.545h-5.51V3971.6h1.092a4.692,4.692,0,0,1-.118-.994,2.387,2.387,0,0,1,.462-1.57,2.307,2.307,0,0,1,1.037-.748,3.359,3.359,0,0,1,1.039-.191,4.126,4.126,0,0,1,.85.109,4.337,4.337,0,0,1,.852.266l-.079,1.623a3.944,3.944,0,0,0-1.505-.453q-.966,0-.964,1.023a1.368,1.368,0,0,0,.344.935Zm9.121,0v1.545h-1.456a5.159,5.159,0,0,1-1.948-.394l-.915.364a.594.594,0,0,0-.236.3,1.333,1.333,0,0,0-.079.488.964.964,0,0,0,.172.6.746.746,0,0,0,.625.226c.157,0,.419-.016.787-.045s.724-.07,1.072-.123l.187,1.279-.374.1a9.534,9.534,0,0,1-1,.217,6.386,6.386,0,0,1-1.018.1,2.287,2.287,0,0,1-1.21-.311,2.018,2.018,0,0,1-.783-.866,2.9,2.9,0,0,1-.27-1.284,2.478,2.478,0,0,1,.374-1.407,1.665,1.665,0,0,1,1.112-.708,4.66,4.66,0,0,0-.393-.344,4.844,4.844,0,0,1-.679-.693,1.224,1.224,0,0,1-.236-.734l-.02-.974a3.135,3.135,0,0,1,.644-.348,6.2,6.2,0,0,1,1.053-.346,5.065,5.065,0,0,1,1.167-.142,5.136,5.136,0,0,1,1.171.142,6.658,6.658,0,0,1,1.072.346,3.124,3.124,0,0,1,.659.348l-.039.974a1.085,1.085,0,0,1-.193.693,4.271,4.271,0,0,1-.624.636,4.328,4.328,0,0,0-.4.354c.065.007.167.01.305.01Zm-3.4-.581a4.119,4.119,0,0,0,.905-.688,1.254,1.254,0,0,0,.325-.512,4.1,4.1,0,0,0-1.24-.177,3.7,3.7,0,0,0-1.21.177,1.412,1.412,0,0,0,.344.551,3.145,3.145,0,0,0,.876.649Zm1.22-1.279a.009.009,0,0,0-.01-.009l.01.009Zm2.184,1.86h1.181a1.4,1.4,0,0,0-.039-.37,5.377,5.377,0,0,1-.059-.811,2.324,2.324,0,0,1,.325-1.328,1.7,1.7,0,0,1,.959-.659,6.012,6.012,0,0,1,1.659-.187,12.134,12.134,0,0,1,1.407.059l.669.079v4.762h-6.1Zm4.408,0v-1.83c-.275-.013-.45-.02-.521-.02a2.456,2.456,0,0,0-.694.069.461.461,0,0,0-.3.291,2.262,2.262,0,0,0-.083.732,3.216,3.216,0,0,0,.03.545c.02.1.032.166.039.212Zm-1.476-5.874h1.525v1.584h-1.525Zm9.967,5.874v1.545H636.1V3971.6h3.129a2.443,2.443,0,0,0-.453-1.555,1.3,1.3,0,0,0-1-.482h-1.131l-.128-1.348a9.265,9.265,0,0,1,1.692-.226,2.476,2.476,0,0,1,1.466.433,2.687,2.687,0,0,1,.929,1.24,5.161,5.161,0,0,1,.32,1.909v.03Zm2.9-5.224v6.769h-2.9V3971.6h1.21v-5.224Zm1.436,0h1.692v6.769h-1.692Z" transform="translate(183.683 2157.849)"/><text class="d" transform="translate(832.607 6130.34)"><tspan x="0" y="0"> </tspan></text><path class="c" d="M613.417,3977.955a3.574,3.574,0,0,1,1.726.324,1.431,1.431,0,0,1,.714.841,5.169,5.169,0,0,1,.148,1.373v2.46h-3.2a1.171,1.171,0,0,0-.773.285,1.371,1.371,0,0,0-.339,1.082,9.632,9.632,0,0,0,.266,1.811l-1.446.059c-.1-.4-.191-.869-.276-1.407a8.66,8.66,0,0,1-.128-1.3,2.22,2.22,0,0,1,.256-1.118,1.867,1.867,0,0,1,.669-.693,5,5,0,0,1-.187-1.2,5.147,5.147,0,0,1,.128-1.062,11,11,0,0,1,.285-1.092,3.8,3.8,0,0,1,.856-.252,6.808,6.808,0,0,1,1.3-.112Zm.9,3.453v-.955a2.243,2.243,0,0,0-.049-.527.55.55,0,0,0-.276-.325,1.482,1.482,0,0,0-.718-.132,3.071,3.071,0,0,0-.7.079,5.261,5.261,0,0,0-.1.925,2.931,2.931,0,0,0,.044.5,4.244,4.244,0,0,0,.094.433Zm8.8,0v1.545h-6.287v-1.545h1.23v-3.9h1.692v3.9h.954v-5.224h1.692v5.224Z" transform="translate(181.911 2162.092)"/><path class="c" d="M624,3981.57v1.545h-4.644v-1.545h1.466V3978.2h1.692v3.375Zm-3.788-5.785H621.4v1.5h-1.191Zm1.673,0h1.191v1.5h-1.191Z" transform="translate(185.662 2161.93)"/><path class="c" d="M630.539,3977.486q.244,1.841.246,2.2v2.735H628.63a2.017,2.017,0,0,1-.685-.118,2.139,2.139,0,0,1-.457-.207,1.632,1.632,0,0,1-1,.325h-3.837v-1.545h1.446V3978h1.692v2.883h.108a.645.645,0,0,0,.521-.236.971.971,0,0,0,.2-.639V3978h1.692V3980a4.036,4.036,0,0,1-.079.787.585.585,0,0,0,.325.089h.541v-.827l.01-.531c.006-.1.01-.249.01-.453q0-.521-.079-1.516l1.505-.069Z" transform="translate(186.996 2162.621)"/><path class="c" d="M634.663,3976.184v6.769h-5.569v-1.545h1.23v-3.9h1.692v3.9h.954v-5.224Z" transform="translate(189.61 2162.092)"/><rect class="c" width="1.692" height="6.769" transform="translate(825.603 6138.276)"/></g></svg>