<svg xmlns="http://www.w3.org/2000/svg" width="44.978" height="30.922" viewBox="0 0 44.978 30.922"><defs><style>.a{fill:#ee7325;}.b{fill:#2d783f;}</style></defs><g transform="translate(-1092.123 -99)"><g transform="translate(0 -5229.598)"><path class="a" d="M821.978,3548.292v-2.373a4.92,4.92,0,0,0-4.92-4.919H781.919a4.92,4.92,0,0,0-4.919,4.919v2.373a.439.439,0,0,0,.438.438h44.1A.439.439,0,0,0,821.978,3548.292Z" transform="translate(315.123 1787.597)"/><path class="b" d="M788.245,3560.448a1.406,1.406,0,0,1-1.406,1.405h-1.406a1.406,1.406,0,0,1-1.406-1.405v-1.406a1.406,1.406,0,0,1,1.406-1.406h1.406a1.406,1.406,0,0,1,1.406,1.406ZM777,3548.94v15.021a4.919,4.919,0,0,0,4.919,4.919h35.139a4.919,4.919,0,0,0,4.92-4.919V3548.94a.439.439,0,0,0-.44-.439h-44.1A.439.439,0,0,0,777,3548.94Z" transform="translate(315.123 1790.639)"/></g></g></svg>