<svg xmlns="http://www.w3.org/2000/svg" width="110.938" height="110.938" viewBox="0 0 110.938 110.938"><defs><style>.a{fill:#646464;}</style></defs><path class="a" d="M822,479.468a20.8,20.8,0,1,1,21.854,20.774c-.35-.007-.7-.009-1.053-.009s-.7,0-1.048.009A20.826,20.826,0,0,1,822,479.468Zm75.989,65.592a4.334,4.334,0,0,0-8.486,1.767,4.528,4.528,0,0,1-.918,3.8,4.4,4.4,0,0,1-3.467,1.648H800.478a4.4,4.4,0,0,1-3.466-1.648,4.529,4.529,0,0,1-.919-3.8,47.879,47.879,0,0,1,45.554-37.913q.572.023,1.149.022c.386,0,.771-.008,1.153-.022a47.67,47.67,0,0,1,38.5,21.16,4.334,4.334,0,0,0,7.2-4.827,56.37,56.37,0,0,0-29.209-22.191,29.468,29.468,0,1,0-35.274.01,56.365,56.365,0,0,0-37.557,41.994,13.165,13.165,0,0,0,12.869,15.878h84.637a13.167,13.167,0,0,0,12.87-15.878Z" transform="translate(-787.328 -450)"/></svg>