<svg xmlns="http://www.w3.org/2000/svg">
    <defs>
        <g id="account">
            <path class="a" d="M1260.057,8.257H1260a3.021,3.021,0,0,0-.1,6.038h.305a3.022,3.022,0,0,0-.152-6.039Zm6.146,14.856h-12.293a1.91,1.91,0,0,1-1.868-2.3,8.208,8.208,0,0,1,5.455-6.1,4.28,4.28,0,1,1,5.123,0,8.225,8.225,0,0,1,4.236,3.219.63.63,0,0,1-.474,1h-.035a.628.628,0,0,1-.536-.3,6.928,6.928,0,0,0-5.586-3.073h-.334a6.952,6.952,0,0,0-6.616,5.511.651.651,0,0,0,.133.552.636.636,0,0,0,.5.239h12.3a.643.643,0,0,0,.5-.239.653.653,0,0,0,.133-.552.632.632,0,0,1,.489-.74.622.622,0,0,1,.129-.013.633.633,0,0,1,.615.5,1.911,1.911,0,0,1-1.87,2.3Z" transform="translate(-1252 -7)"/>
        </g>
        <g id="payment">
            <path class="a" d="M1092.49,15.248a.46.46,0,0,1-.475-.443.452.452,0,0,1,.389-.436l.086-.007h5.706a.46.46,0,0,1,.475.443.451.451,0,0,1-.39.435l-.085.008Zm0,2.716a.46.46,0,0,1-.475-.443.452.452,0,0,1,.389-.436l.086-.007h5.706a.46.46,0,0,1,.475.443.451.451,0,0,1-.39.435l-.085.008Zm9.752-2.8-.008.08v1.388a.451.451,0,0,0,.389.435l.086.008h1.649a.466.466,0,0,0,.468-.363l.008-.08V15.248a.452.452,0,0,0-.389-.436l-.086-.007h-1.649A.467.467,0,0,0,1102.242,15.169Zm.468,2.8a1.385,1.385,0,0,1-1.421-1.208l-.006-.12V15.248a1.364,1.364,0,0,1,1.3-1.323l.13-.005h1.649a1.386,1.386,0,0,1,1.421,1.207l.006.121v1.388a1.363,1.363,0,0,1-1.3,1.322l-.13.006Zm-12.752-8.873-.006.121V10.6h17.575V9.213a1.361,1.361,0,0,0-1.3-1.323l-.13-.005h-14.721A1.386,1.386,0,0,0,1089.958,9.092Zm-.006,9.86a1.363,1.363,0,0,0,1.3,1.323l.13.005H1106.1a1.384,1.384,0,0,0,1.42-1.207l.006-.121v-7.36h-17.574Zm1.426,2.213a2.325,2.325,0,0,1-2.373-2.067l-.005-.146V9.213A2.3,2.3,0,0,1,1091.221,7l.157,0H1106.1a2.322,2.322,0,0,1,2.373,2.067l0,.146v9.739a2.3,2.3,0,0,1-2.221,2.209l-.156,0Z" transform="translate(-1088.85 -6.85)"/>
        </g>
        <g id="follow">
            <path class="a" d="M13.719,3.883a.571.571,0,0,1,.354-.528L22.136.043a.571.571,0,0,1,.434,0l8.063,3.312a.571.571,0,0,1,.354.528v10.48a.571.571,0,0,1-.354.528L22.569,18.2a.569.569,0,0,1-.433,0l-8.063-3.312a.571.571,0,0,1-.354-.528Zm8.634,2.743,2.971-1.22-6.42-2.8-3.169,1.3Zm7.492-1.843L27.281,5.836V8.806a.571.571,0,0,1-1.142,0V6.3L22.923,7.626v9.2l6.921-2.843ZM22.353,1.188,20.374,2l6.42,2.8,2.178-.895Zm-.571,6.438L14.861,4.783v9.2l6.921,2.843Z" transform="translate(-13.719 0)"/>
        </g>
        <g id="location">
            <path class="a" d="M921.532,16.044a3.9,3.9,0,0,1-.6-4.216,4,4,0,0,1,3.39-2.291l.246-.008a4.029,4.029,0,0,1,3.21,1.593,3.9,3.9,0,0,1,.624,3.489.637.637,0,0,1-.466.432.65.65,0,0,1-.614-.181.624.624,0,0,1-.148-.614,2.665,2.665,0,0,0-1.2-3.066,2.749,2.749,0,0,0-3.31.388,2.651,2.651,0,0,0-.44,3.259,2.736,2.736,0,0,0,3.092,1.229.648.648,0,0,1,.626.15.628.628,0,0,1,.177.611.635.635,0,0,1-.453.454,4.048,4.048,0,0,1-4.134-1.23Zm-.669-6.188a5.2,5.2,0,0,0-1.575,3.66c0,2.3,1.419,3.844,3.062,5.628a26.455,26.455,0,0,1,2.219,2.641,25.8,25.8,0,0,1,1.749-2.136l.471-.505.655-.716c1.269-1.414,2.41-2.852,2.414-4.912a5.2,5.2,0,0,0-1.574-3.66,5.316,5.316,0,0,0-7.42,0Zm3.509,13.31a.647.647,0,0,1-.541-.3,20.373,20.373,0,0,0-1.989-2.4l-.444-.469a19.515,19.515,0,0,1-2.317-2.853A6.77,6.77,0,0,1,918,13.516,6.5,6.5,0,0,1,922.055,7.5a6.6,6.6,0,0,1,7.156,1.417,6.487,6.487,0,0,1,1.925,4.6,6.775,6.775,0,0,1-1.087,3.636,19.632,19.632,0,0,1-1.894,2.409l-.424.445a20.458,20.458,0,0,0-2.431,2.866.652.652,0,0,1-.434.287l-.108.009Z" transform="translate(-918 -7)"/>
        </g>
        <g id="call">
            <path class="a" d="M304.165,20.025a2.392,2.392,0,0,0-.733-1.643,5.876,5.876,0,0,0-2.326-1.546,2.6,2.6,0,0,0-2.671.759l-.854.848a12.82,12.82,0,0,1-2.691-2.079l-.088-.083a12.857,12.857,0,0,1-2.078-2.692l.848-.854a2.6,2.6,0,0,0,.757-2.677,5.872,5.872,0,0,0-1.544-2.326,2.4,2.4,0,0,0-3.335-.115l-.017.011-.024.023a5.123,5.123,0,0,0-1.406,3.753,11.994,11.994,0,0,0,3.817,7.948,15.384,15.384,0,0,0,1.513,1.319.632.632,0,0,0,.768-1,14.07,14.07,0,0,1-1.385-1.21,10.725,10.725,0,0,1-3.446-7.056,3.91,3.91,0,0,1,1.024-2.842,1.136,1.136,0,0,1,1.581.058c1.635,1.695,1.516,2.5.794,3.233L291.5,13.026a.633.633,0,0,0-.128.7,12.763,12.763,0,0,0,2.54,3.446l.083.084a12.743,12.743,0,0,0,3.445,2.54.63.63,0,0,0,.7-.128l1.175-1.173c.742-.723,1.541-.841,3.232.794a1.137,1.137,0,0,1,.058,1.582A3.886,3.886,0,0,1,299.8,21.9h-.028a8.171,8.171,0,0,1-3.117-.739.632.632,0,0,0-.5,1.155,9.29,9.29,0,0,0,3.609.849h.035a5.108,5.108,0,0,0,3.716-1.406l.023-.023.015-.019A2.388,2.388,0,0,0,304.165,20.025Z" transform="translate(-288 -7)"/>
        </g>
        <g id="email">
            <path class="a" d="M177.576,8.229h0a1.317,1.317,0,0,0-.749.23l5.747,3.4a18.647,18.647,0,0,0,2.295,1.294,16.216,16.216,0,0,0,2.066-1.294l5.744-3.4a1.319,1.319,0,0,0-.748-.23H177.576ZM191.93,21.006H177.58A2.527,2.527,0,0,1,175,18.549V9.456A2.527,2.527,0,0,1,177.58,7H191.93a2.526,2.526,0,0,1,2.578,2.456v6.16a.646.646,0,0,1-1.29,0V9.584l-5.6,3.318a13.037,13.037,0,0,1-2.748,1.48,14.707,14.707,0,0,1-2.975-1.48l-5.6-3.318v8.965a1.271,1.271,0,0,0,1.29,1.236H191.93a1.271,1.271,0,0,0,1.288-1.236.611.611,0,0,1,.323-.532.672.672,0,0,1,.645,0,.613.613,0,0,1,.322.532A2.526,2.526,0,0,1,191.93,21.006Z" transform="translate(-175 -7)"/>
        </g>
        <g id="profile">
            <path class="a" d="M301.173,77.98c.06,0,.121.02.181.02h.059c.055,0,.1-.016.155-.02a12.078,12.078,0,0,1,9.089,4.372,14.919,14.919,0,0,1-18.494-.117A12.094,12.094,0,0,1,301.173,77.98Zm.24-12.456a4.985,4.985,0,0,1,.161,9.966c-.072,0-.142-.015-.214-.015s-.124.012-.186.015a4.985,4.985,0,0,1,.24-9.966Zm.087-10.03a14.975,14.975,0,0,1,11,25.17,14.565,14.565,0,0,0-6.4-4.376,7.485,7.485,0,1,0-9.449-.01,14.585,14.585,0,0,0-6.3,4.235,14.985,14.985,0,0,1,11.15-25.02Zm0-2.495A17.5,17.5,0,1,0,319,70.5,17.52,17.52,0,0,0,301.5,53Z" transform="translate(-284 -53)"/>
        </g>
        <g id="like">
            <path class="a" d="M247.58,83.01l-.354.353-.725.708-.725-.708-.354-.353a111.845,111.845,0,0,1-10.327-11.119c-2.352-3.163-3.4-5.754-3.4-8.4a7.934,7.934,0,0,1,1.995-5.406,6.624,6.624,0,0,1,4.937-2.167,7.479,7.479,0,0,1,5.814,2.966l2.061,2.653,2.061-2.653a7.479,7.479,0,0,1,5.814-2.966,6.624,6.624,0,0,1,4.937,2.167,7.934,7.934,0,0,1,1.995,5.406c0,2.647-1.049,5.237-3.4,8.4A111.961,111.961,0,0,1,247.58,83.01Zm6.8-30.01a10.056,10.056,0,0,0-7.875,4.005A10.056,10.056,0,0,0,238.625,53C233.2,53,229,57.577,229,63.49c0,7.248,5.95,13.066,14.963,22.029L246.5,88l2.538-2.481C258.05,76.556,264,70.738,264,63.49,264,57.577,259.8,53,254.375,53Z" transform="translate(-229 -53)"/>
        </g>
        <g id="cart">
            <path class="a" d="M111.74,83.668a1.3,1.3,0,1,1-1.3,1.3A1.3,1.3,0,0,1,111.74,83.668Zm13.535,0a1.3,1.3,0,1,1-1.3,1.3A1.3,1.3,0,0,1,125.275,83.668Zm7.419-21.712a1.367,1.367,0,0,0-1.061-.5H106.868l-.1-.933,0-.03A7.48,7.48,0,0,0,99.367,54a1.367,1.367,0,0,0,0,2.734,4.738,4.738,0,0,1,4.683,4.1l1.625,14.93a4.105,4.105,0,0,0-2.413,3.737v.068a4.107,4.107,0,0,0,4.1,4.1h.557a4.033,4.033,0,1,0,7.638,0h5.9a4.033,4.033,0,1,0,3.819-2.734H107.365A1.369,1.369,0,0,1,106,79.566V79.5a1.368,1.368,0,0,1,1.367-1.367H124.82a6.261,6.261,0,0,0,5.674-3.826,1.368,1.368,0,0,0-2.5-1.1,3.573,3.573,0,0,1-3.17,2.191H108.386l-1.22-11.211H129.95l-.668,3.207a1.367,1.367,0,1,0,2.676.558l1.013-4.853A1.368,1.368,0,0,0,132.693,61.956Z" transform="translate(-98 -54)"/>
        </g>
        <g id="facebook">
            <circle style="fill:#fffff;" cx="56.098" cy="56.098" r="56.098"/>
            <path style="fill:#232323;" d="M70.201,58.294h-10.01v36.672H45.025V58.294h-7.213V45.406h7.213v-8.34
		c0-5.964,2.833-15.303,15.301-15.303L71.56,21.81v12.51h-8.151c-1.337,0-3.217,0.668-3.217,3.513v7.585h11.334L70.201,58.294z"/>
        </g>
        <g id="twitter">
            <path d="m256 0c-141.363281 0-256 114.636719-256 256s114.636719 256 256 256 256-114.636719 256-256-114.636719-256-256-256zm116.886719 199.601562c.113281 2.519532.167969 5.050782.167969 7.59375 0 77.644532-59.101563 167.179688-167.183594 167.183594h.003906-.003906c-33.183594 0-64.0625-9.726562-90.066406-26.394531 4.597656.542969 9.277343.8125 14.015624.8125 27.53125 0 52.867188-9.390625 72.980469-25.152344-25.722656-.476562-47.410156-17.464843-54.894531-40.8125 3.582031.6875 7.265625 1.0625 11.042969 1.0625 5.363281 0 10.558593-.722656 15.496093-2.070312-26.886718-5.382813-47.140624-29.144531-47.140624-57.597657 0-.265624 0-.503906.007812-.75 7.917969 4.402344 16.972656 7.050782 26.613281 7.347657-15.777343-10.527344-26.148437-28.523438-26.148437-48.910157 0-10.765624 2.910156-20.851562 7.957031-29.535156 28.976563 35.554688 72.28125 58.9375 121.117187 61.394532-1.007812-4.304688-1.527343-8.789063-1.527343-13.398438 0-32.4375 26.316406-58.753906 58.765625-58.753906 16.902344 0 32.167968 7.144531 42.890625 18.566406 13.386719-2.640625 25.957031-7.53125 37.3125-14.261719-4.394531 13.714844-13.707031 25.222657-25.839844 32.5 11.886719-1.421875 23.214844-4.574219 33.742187-9.253906-7.863281 11.785156-17.835937 22.136719-29.308593 30.429687zm0 0"/>
        </g>
        <g id="instagram">
            <path d="m305 256c0 27.0625-21.9375 49-49 49s-49-21.9375-49-49 21.9375-49 49-49 49 21.9375 49 49zm0 0"/>
            <path d="m370.59375 169.304688c-2.355469-6.382813-6.113281-12.160157-10.996094-16.902344-4.742187-4.882813-10.515625-8.640625-16.902344-10.996094-5.179687-2.011719-12.960937-4.40625-27.292968-5.058594-15.503906-.707031-20.152344-.859375-59.402344-.859375-39.253906 0-43.902344.148438-59.402344.855469-14.332031.65625-22.117187 3.050781-27.292968 5.0625-6.386719 2.355469-12.164063 6.113281-16.902344 10.996094-4.882813 4.742187-8.640625 10.515625-11 16.902344-2.011719 5.179687-4.40625 12.964843-5.058594 27.296874-.707031 15.5-.859375 20.148438-.859375 59.402344 0 39.25.152344 43.898438.859375 59.402344.652344 14.332031 3.046875 22.113281 5.058594 27.292969 2.359375 6.386719 6.113281 12.160156 10.996094 16.902343 4.742187 4.882813 10.515624 8.640626 16.902343 10.996094 5.179688 2.015625 12.964844 4.410156 27.296875 5.0625 15.5.707032 20.144532.855469 59.398438.855469 39.257812 0 43.90625-.148437 59.402344-.855469 14.332031-.652344 22.117187-3.046875 27.296874-5.0625 12.820313-4.945312 22.953126-15.078125 27.898438-27.898437 2.011719-5.179688 4.40625-12.960938 5.0625-27.292969.707031-15.503906.855469-20.152344.855469-59.402344 0-39.253906-.148438-43.902344-.855469-59.402344-.652344-14.332031-3.046875-22.117187-5.0625-27.296874zm-114.59375 162.179687c-41.691406 0-75.488281-33.792969-75.488281-75.484375s33.796875-75.484375 75.488281-75.484375c41.6875 0 75.484375 33.792969 75.484375 75.484375s-33.796875 75.484375-75.484375 75.484375zm78.46875-136.3125c-9.742188 0-17.640625-7.898437-17.640625-17.640625s7.898437-17.640625 17.640625-17.640625 17.640625 7.898437 17.640625 17.640625c-.003906 9.742188-7.898437 17.640625-17.640625 17.640625zm0 0"/>
            <path d="m256 0c-141.363281 0-256 114.636719-256 256s114.636719 256 256 256 256-114.636719 256-256-114.636719-256-256-256zm146.113281 316.605469c-.710937 15.648437-3.199219 26.332031-6.832031 35.683593-7.636719 19.746094-23.246094 35.355469-42.992188 42.992188-9.347656 3.632812-20.035156 6.117188-35.679687 6.832031-15.675781.714844-20.683594.886719-60.605469.886719-39.925781 0-44.929687-.171875-60.609375-.886719-15.644531-.714843-26.332031-3.199219-35.679687-6.832031-9.8125-3.691406-18.695313-9.476562-26.039063-16.957031-7.476562-7.339844-13.261719-16.226563-16.953125-26.035157-3.632812-9.347656-6.121094-20.035156-6.832031-35.679687-.722656-15.679687-.890625-20.6875-.890625-60.609375s.167969-44.929688.886719-60.605469c.710937-15.648437 3.195312-26.332031 6.828125-35.683593 3.691406-9.808594 9.480468-18.695313 16.960937-26.035157 7.339844-7.480469 16.226563-13.265625 26.035157-16.957031 9.351562-3.632812 20.035156-6.117188 35.683593-6.832031 15.675781-.714844 20.683594-.886719 60.605469-.886719s44.929688.171875 60.605469.890625c15.648437.710937 26.332031 3.195313 35.683593 6.824219 9.808594 3.691406 18.695313 9.480468 26.039063 16.960937 7.476563 7.34375 13.265625 16.226563 16.953125 26.035157 3.636719 9.351562 6.121094 20.035156 6.835938 35.683593.714843 15.675781.882812 20.683594.882812 60.605469s-.167969 44.929688-.886719 60.605469zm0 0"/>
        </g>
        <g id="linkedin">
            <circle style="fill:#fffff;" cx="56.098" cy="56.097" r="56.098"/>
            <g>
                <path style="fill:#232323;" d="M89.616,60.611v23.128H76.207V62.161c0-5.418-1.936-9.118-6.791-9.118
			c-3.705,0-5.906,2.491-6.878,4.903c-0.353,0.862-0.444,2.059-0.444,3.268v22.524H48.684c0,0,0.18-36.546,0-40.329h13.411v5.715
			c-0.027,0.045-0.065,0.089-0.089,0.132h0.089v-0.132c1.782-2.742,4.96-6.662,12.085-6.662
			C83.002,42.462,89.616,48.226,89.616,60.611L89.616,60.611z M34.656,23.969c-4.587,0-7.588,3.011-7.588,6.967
			c0,3.872,2.914,6.97,7.412,6.97h0.087c4.677,0,7.585-3.098,7.585-6.97C42.063,26.98,39.244,23.969,34.656,23.969L34.656,23.969z
			 M27.865,83.739H41.27V43.409H27.865V83.739z"/>
            </g>
        </g>
    </defs>
</svg>