<svg xmlns="http://www.w3.org/2000/svg" width="273.728" height="92.4" viewBox="0 0 273.728 92.4"><defs><style>.a,.d{fill:none;}.a,.b{stroke:#646464;}.a{stroke-miterlimit:10;stroke-width:6px;}.b{fill:#fff;stroke-width:12px;}.c{stroke:none;}</style></defs><g transform="translate(3.081 3)"><path class="a" d="M257.778,524.089l1.781-6.226c-5.633,1.955-2.618.767-8.106,2.95-8.481,3.369-7.607,3.276,4.864,3.276Zm58.783-16.162v16.162h46.947s-7.92-6.61-11.347-8.9c-3.556-2.391-7.4-5.261-13.8-6.52C328.742,507.485,324.854,507.718,316.561,507.927Zm-9.345,16.162v-16.1a123.991,123.991,0,0,0-19,2.226,86.876,86.876,0,0,0-13.954,3.6s-1.483-.464-5.5,10.274Zm-93.738,1.6c65.744-21.721,47.151-27.625,124.886-27.625,6.366,0,19.889,7.9,29.78,15.753,4.043,3.209,11.3,10.274,11.3,10.274s31.611-.526,54.2,3.61c17.507,3.206,25.465,9.848,30.25,18.143l.074.132-7.659-.132.779,11.232h9.644c0,5.509.645,12.88-2.764,12.88-4.719,0-12.68.442-16.484.442h-8.582a25.869,25.869,0,0,0,.27-3.824,26.814,26.814,0,0,0-26.812-26.831c-14.011,0-28.706,11.762-26.564,30.366-19.4.125-33.759.233-46.477.289-45.656.2-52.7,0-52.917,0h-.27a25.59,25.59,0,0,0,.27-3.824c0-7.171-4.514-15.737-9.577-20.318a24.48,24.48,0,0,0-17.256-6.514,26.814,26.814,0,0,0-26.812,26.831,25.125,25.125,0,0,0,.228,3.556h-.061l-.063-.021h-.1c-3.707-.6-14.507-5.126-14.507-5.126s-14.738.334-14.738-1.88a23.24,23.24,0,0,0-2.494-9.244h12.471v-9.2H199.115v-4.667l.021-.1v-.811l.021-.145v-.394l.019-.166v-.206l.023-.19v-.082l.019-.269v-.1l.021-.166.021-.188.021-.187.021-.187v-.166l.021-.042a1.6,1.6,0,0,1,.04-.312v-.04c.021-.166.063-.333.084-.5v-.021c.021-.1.042-.206.061-.312v-.021c.021-.1.063-.209.084-.312v-.021c.063-.27.145-.52.23-.769v-.019a7.156,7.156,0,0,1,1.184-2.184v-.019a9.4,9.4,0,0,1,.79-.853C203.792,529.283,207.324,527.724,213.478,525.687Z" transform="translate(-199.115 -498.062)"/><g class="b" transform="translate(40.276 48.845)"><circle class="c" cx="20.278" cy="20.278" r="20.278"/><circle class="d" cx="20.278" cy="20.278" r="14.278"/></g><g class="b" transform="translate(193.083 48.845)"><circle class="c" cx="20.278" cy="20.278" r="20.278"/><circle class="d" cx="20.278" cy="20.278" r="14.278"/></g></g></svg>