<svg xmlns="http://www.w3.org/2000/svg" width="113.883" height="34.539" viewBox="0 0 113.883 34.539"><defs><style>.a{fill:#fff;opacity:0.8;}</style></defs><path class="a" d="M797.181,3971.631l1.272-7.146a28.747,28.747,0,0,0-8.39-1.43c-4.575,0-15.506,1.9-15.506,10.958,0,8.574,12.71,8.813,12.71,13.339s-11.44,3.812-15.253.953l-1.271,7.385a26.657,26.657,0,0,0,10.422,1.9c6.356,0,15.761-3.1,15.761-11.435,0-8.574-12.964-9.526-12.964-13.339C784.218,3969.249,793.368,3969.726,797.181,3971.631Zm13.728,13.578,4.83-12.387,2.8,12.387Zm10.168,11.91h8.643l-7.372-33.349h-7.372c-3.559,0-4.321,2.383-4.321,2.383l-13.728,30.966h9.66l2.034-5H820.06ZM748.12,3963.77l-8.9,22.867-1.019-5-3.05-15.007s-.254-3.1-4.319-3.1H716.091l-.254.714a37.6,37.6,0,0,1,9.661,3.812l8.132,29.06h9.662l14.742-33.349Zm17.031,33.349H756l5.847-33.349h9.406Z" transform="translate(-715.837 -3963.056)"/></svg>