<svg xmlns="http://www.w3.org/2000/svg" width="74.087" height="24.562" viewBox="0 0 74.087 24.562"><defs><style>.a{fill:#26337a;}.a,.b{fill-rule:evenodd;}.b{fill:#ec982d;}</style></defs><g transform="translate(-9.261 -15.5)"><path class="a" d="M675.6,2196.314l3.564-23.618h5.7l-3.564,23.618h-5.7" transform="translate(-639.482 -2157.194)"/><path class="a" d="M697.2,2173.692a13.971,13.971,0,0,0-5.256-1c-5.8,0-9.879,3.232-9.911,7.853-.037,3.422,2.912,5.328,5.135,6.466,2.285,1.165,3.054,1.911,3.045,2.953-.016,1.595-1.824,2.324-3.51,2.324a11.317,11.317,0,0,1-5.524-1.247l-.755-.38-.819,5.328a17.011,17.011,0,0,0,6.533,1.266c6.161,0,10.164-3.188,10.213-8.127.021-2.71-1.542-4.769-4.927-6.466-2.049-1.1-3.306-1.833-3.292-2.949,0-.988,1.063-2.047,3.359-2.047a9.875,9.875,0,0,1,4.387.913l.528.271.794-5.159" transform="translate(-634.221 -2157.195)"/><path class="a" d="M703.3,2172.7h-4.584a2.926,2.926,0,0,0-3.109,1.961l-8.807,21.656h6.23s1.016-2.913,1.245-3.551c.681,0,6.733.011,7.6.011.178.824.722,3.54.722,3.54H708.1Zm-7.318,15.231c.493-1.359,2.364-6.605,2.364-6.605-.035.063.488-1.37.787-2.257l.4,2.039s1.139,5.643,1.373,6.823Z" transform="translate(-624.752 -2157.195)"/><path class="a" d="M681.7,2172.7l-5.908,16.132-.632-3.28a18.118,18.118,0,0,0-8.363-9.924l5.406,20.689,6.388,0L688.1,2172.7h-6.4" transform="translate(-651.056 -2157.195)"/><path class="b" d="M673.916,2173.1h-9.835l-.081.47c7.652,1.872,12.715,6.383,14.818,11.81l-2.137-10.374c-.368-1.431-1.44-1.854-2.764-1.906" transform="translate(-654.739 -2156.658)"/></g></svg>